<svg width="69" height="84" viewBox="0 0 69 84" fill="none" xmlns="http://www.w3.org/2000/svg">
<path d="M4.0895 57.3376C8.78105 67.956 18.3715 76.7444 28.6827 81.7161C29.7499 82.2307 33.4885 84.0012 34.4367 84C35.4097 83.9988 37.8197 82.902 38.815 82.4671C49.5197 77.7818 60.0135 68.3291 64.8641 57.5385C71.1705 43.511 68.1916 27.7011 68.8901 12.7574C68.9113 12.2346 68.5709 11.8056 68.0679 11.6856C67.1833 11.4741 65.4036 11.6107 64.3505 11.5145C55.5858 10.7136 46.3547 7.00262 38.8162 2.58107C37.6347 1.88831 36.4627 0.961464 35.2789 0.326929C34.9856 0.168889 34.6923 -0.0485636 34.3472 0.00966154C33.8101 0.0999699 30.5473 2.38857 29.744 2.86269C21.659 7.63121 12.5032 10.8669 3.10596 11.6333C1.89862 11.7319 0.130616 11.1722 0.0988129 12.9962C0.739587 27.8056 -2.06498 43.4159 4.08716 57.3388L4.0895 57.3376ZM2.23904 13.7841C3.57594 13.6011 4.9317 13.5678 6.27214 13.3979C14.8036 12.3213 23.3987 9.10942 30.7629 4.71758C31.2906 4.40269 34.2283 2.37907 34.4462 2.366C34.8337 2.34104 37.1942 4.02838 37.7584 4.3611C46.5773 9.57522 56.58 13.2434 66.8842 13.7698L66.8889 37.9534C66.6451 43.8377 65.8335 49.5462 63.6768 55.03C58.7155 67.6459 46.9872 77.2887 34.5451 81.8433C22.5801 77.4728 11.403 68.6072 6.09192 56.7423C3.71729 51.4379 2.58416 45.6582 2.22136 39.8547L2.23904 13.7829V13.7841Z" fill="white"/>
<path d="M15.9533 23.3888C17.3526 23.6122 19.3715 23.2878 20.8321 23.333C21.0052 23.1904 21.1713 23.0347 21.2785 22.8327C22.1596 21.1775 23.4517 15.3704 26.4283 17.5734C29.1963 19.622 29.3365 27.9922 33.9762 28.6124C39.3262 29.3278 39.795 21.2689 42.1543 18.2294C43.5725 16.4018 45.0354 16.9734 46.1321 18.7249C46.582 19.445 47.9931 23.1131 48.2287 23.2641C48.4219 23.3876 48.588 23.3805 48.8 23.4007C51.1888 23.6217 54.9674 22.8826 57.0712 23.8487C61.023 25.6644 61.116 32.9092 57.1065 34.6215C56.2784 34.9756 54.6518 34.8746 54.6518 36.0486C54.6518 37.6611 56.9687 36.9208 57.845 36.5548C62.5684 34.5847 63.3611 27.1437 60.0547 23.5706C57.1642 20.4467 53.243 21.5898 49.4678 21.3593C48.4466 18.5371 46.9448 14.6016 43.2792 15.0888C39.4428 15.5985 38.5288 22.9254 36.4286 25.5241C34.9421 27.3636 33.3731 26.5995 32.2812 24.8575C30.3777 21.8203 29.5179 14.636 24.7745 15.0745C21.8192 15.3478 20.7355 19.0552 19.6589 21.3189C18.7284 21.5957 15.9427 20.9968 15.3596 21.7336C14.8672 22.3562 15.157 23.2629 15.9544 23.39L15.9533 23.3888Z" fill="white"/>
<path d="M13.9779 48.7881C14.9721 48.9592 17.2866 49.1006 18.2219 48.8582C19.4115 48.5504 19.2231 47.039 18.2772 46.8263C17.3231 46.6112 15.7177 46.8976 14.6528 46.7989C11.5102 46.5078 10.4195 43.953 10.7199 41.0537C11.0002 38.3527 13.0415 37.0753 15.5881 37.0539L33.6099 37.0563C34.6264 36.543 34.3083 35.0719 33.1411 35.0386L14.3325 35.0731C6.95296 36.0534 6.51949 47.5036 13.9767 48.7869L13.9779 48.7881Z" fill="white"/>
<path d="M29.9572 51.9156L26.1314 47.5737L29.843 43.7106C30.1881 42.6269 29.2364 41.8522 28.2611 42.4701L23.5448 47.039V43.1771C23.5448 42.2205 21.54 41.7036 21.315 43.1842C21.4976 46.1727 21.0465 49.501 21.3033 52.4491C21.3904 53.4497 22.0818 54.1864 23.0418 53.5982C24.2468 52.8603 22.7238 49.7066 24.3269 48.9473C24.4836 48.92 24.6261 49.1339 24.7262 49.2325C25.9288 50.4255 26.9995 52.0558 28.1928 53.2203C29.3801 54.3789 30.8477 53.3106 29.9584 51.9144L29.9572 51.9156Z" fill="white"/>
<path d="M47.8624 41.5729C54.2948 41.0845 53.7966 31.4168 48.4513 30.8821C47.8106 30.8179 45.6208 30.7811 45.0625 30.9058C44.6738 30.9938 44.3947 31.3752 44.3876 31.7685L44.4429 40.8659C44.7315 41.7975 47.0614 41.6323 47.8635 41.5705L47.8624 41.5729ZM46.509 32.6633C49.7234 32.163 51.1428 35.1194 50.0992 37.8893C49.4737 39.5505 48.1156 39.7763 46.509 39.7917V32.6633Z" fill="white"/>
<path d="M53.3102 46.8916L32.2247 46.8262C30.9208 47.3978 31.2941 48.8641 32.6711 48.9402L52.4621 48.9437C53.7259 48.9912 54.4727 47.6687 53.3102 46.8916Z" fill="white"/>
<path d="M37.5052 60.2228C31.704 59.8128 31.5969 68.3469 36.2578 69.086C37.067 69.2144 40.4558 69.2096 40.2473 67.8015C40.0459 66.4421 38.822 67.2953 38.0941 67.3619C36.61 67.4973 35.3826 66.9555 35.2036 65.3371H40.0906C40.4628 65.3371 40.8433 64.5706 40.861 64.2035C40.9599 62.1858 39.5252 60.3653 37.504 60.2228H37.5052ZM35.2036 63.7923C35.3838 61.3528 38.7231 61.171 38.7372 63.7923H35.2036Z" fill="white"/>
<path d="M26.7545 57.523C25.8464 57.359 22.5695 57.384 21.6001 57.4945C21.1419 57.5468 20.7932 57.6917 20.5706 58.1195L20.5058 68.341C20.8062 69.4508 22.507 69.3189 22.7191 68.2471C22.9323 67.167 22.5612 65.4238 22.7191 64.2664H26.1938C27.0148 64.2664 27.0148 62.3652 26.1938 62.3652H22.8957L22.7191 62.187V59.5134H26.665C27.5284 59.5134 28.0019 57.7464 26.7557 57.5218L26.7545 57.523Z" fill="white"/>
<path d="M46.741 64.573C46.7846 64.0359 48.6398 62.2535 48.893 61.6225C49.2158 60.8204 48.7234 60.117 47.8742 60.2299C47.4866 60.281 47.1203 60.7147 46.8659 61.0034C46.6091 61.2957 45.5937 63.0116 45.3911 62.9605C44.6903 62.2155 43.6726 60.0017 42.4735 60.2477C41.9011 60.3653 41.7043 60.8787 41.8528 61.4193C42.0459 62.1228 43.9965 64.2379 43.9965 64.5635C43.5996 65.4868 41.735 67.224 41.6725 68.1295C41.6431 68.5561 41.735 68.7996 42.119 68.9898C43.6043 69.7289 44.3805 66.8711 45.3782 66.2912C45.6043 66.3399 46.8871 68.5477 47.3924 68.9007C48.2958 69.5304 49.4019 68.9517 49.0473 67.8241C48.8424 67.1729 46.6974 65.1018 46.741 64.573Z" fill="white"/>
<path d="M38.6772 32.6633H42.3286C42.9741 32.6633 43.278 31.1577 42.4217 30.9058C40.8374 30.9997 38.9222 30.6943 37.3791 30.8785C36.5817 30.9736 36.4368 31.5285 36.3767 32.2438C36.1518 34.9222 36.5299 37.9428 36.4085 40.6556C36.6288 41.889 38.3049 41.7464 38.5005 41.0406V37.2381L38.6772 37.0599H41.7397C41.9705 37.0599 42.3604 36.5394 42.3863 36.2768C42.4158 35.9857 42.0695 35.2775 41.8575 35.2775H38.6772L38.5005 35.0992V32.8415L38.6772 32.6633Z" fill="white"/>
<path d="M31.1669 67.091L31.0786 57.4375C30.9137 56.9515 30.3777 56.6223 29.876 56.6841C29.1468 56.7744 28.9089 57.5028 28.8453 58.1492C28.5473 61.1556 29.1386 64.497 28.9619 67.5342C29.2411 70.1591 33.5946 69.2999 31.1681 67.091H31.1669Z" fill="white"/>
</svg>
