<svg width="86" height="85" viewBox="0 0 86 85" fill="none" xmlns="http://www.w3.org/2000/svg">
<path d="M40.3422 0.0616365C6.92524 1.78836 -11.5443 40.0015 7.95381 67.0247C27.1358 93.6093 67.6726 90.0602 81.7837 60.651C95.8606 31.3142 72.8214 -1.61725 40.3422 0.0616365ZM81.2942 56.1989C71.4897 83.0086 37.1149 91.8021 15.5974 72.4137C-11.3568 48.1276 4.85393 3.75426 41.4038 2.16171C70.211 0.906332 91.1152 29.3448 81.2942 56.2V56.1989Z" fill="white"/>
<path d="M48.7395 55.3798C48.7395 55.6435 49.3587 56.0857 49.6513 56.1137C51.3711 56.2805 50.5159 53.2389 50.7978 52.2834C52.3454 51.819 53.3433 50.9043 53.6854 49.306C54.7198 49.0119 57.2241 49.8578 57.4458 48.3516C57.5284 47.7916 56.7452 47.1546 56.2273 47.1546H53.6913V44.9378H60.5905C60.9196 44.9378 61.4469 44.2938 61.4705 43.9391C61.4905 43.6393 61.0447 42.8377 60.8264 42.8377H53.7502L53.5733 42.6627V40.621C54.2409 40.5393 56.7074 40.6572 57.1073 40.3247C57.6652 39.8615 57.526 38.8826 56.8466 38.6084C56.7499 38.5688 55.9442 38.4043 55.8735 38.4043H53.5733L53.6913 36.1875H56.5812C57.0212 36.1875 57.4458 35.428 57.4022 35.0045C57.2476 33.5204 54.6833 34.3115 53.6842 34.0373C53.3256 32.5299 52.4162 31.39 50.7931 31.18C50.6244 30.949 50.8061 28.8279 50.7447 28.3111C50.582 26.9274 48.7371 27.4372 48.7371 28.0801V31.1718H46.378V28.4301C46.378 28.3671 46.1043 27.8106 46.0277 27.7266C45.7304 27.3987 45.1454 27.3415 44.7537 27.5247C44.6452 27.5749 44.2548 28.0427 44.2548 28.0801V31.1718H41.8957C41.8709 30.1428 41.9275 29.1056 41.9004 28.0754C41.8933 27.7989 41.7801 27.5446 41.773 27.268C41.7541 26.5202 41.957 25.105 41.8461 24.5181C41.6798 23.6314 40.6736 23.1286 40.0037 23.8764C39.927 23.9616 39.6545 24.517 39.6545 24.5811V31.1718H37.4133V28.4301C37.4133 28.2271 36.9875 27.5352 36.741 27.4629C34.5777 26.8282 35.5107 30.0763 35.2394 31.1788C33.7013 31.3982 32.5158 32.5404 32.3306 34.0758C32.2256 34.1644 29.9892 34.0361 29.5681 34.0851C28.0712 34.2589 28.4888 36.1875 29.4525 36.1875H32.3424V38.4043H29.6884C28.7306 38.4043 27.9828 39.5721 28.8603 40.2733C29.4041 40.7085 31.5379 40.4682 32.3424 40.621V42.8377H25.2072C24.3332 42.8377 24.3379 44.9378 25.4432 44.9378H32.3424V47.1546H29.5704C28.8108 47.1546 28.2234 48.2373 28.7518 48.8976C29.3062 49.5895 31.479 49.1099 32.3365 49.2593C32.4391 50.8518 33.7944 51.8645 35.2359 52.2822C35.5296 53.3089 34.6131 56.3389 36.4968 56.1149C36.8542 56.0729 37.4133 55.57 37.4133 55.262V52.2869H39.7725V59.2276C39.7725 59.8016 40.9697 60.091 41.4864 59.6395C41.5654 59.5706 41.8957 59.0351 41.8957 58.9943V52.2869H44.2548V55.3787C44.2548 55.682 45.038 56.1522 45.3659 56.1359C45.8649 56.1102 46.378 55.4848 46.378 55.0286V52.2869H48.7371V55.3787L48.7395 55.3798ZM35.8198 50.195C34.9728 50.1133 34.5458 49.691 34.4633 48.8533C34.0233 44.3626 34.8089 39.1754 34.4644 34.6113C34.4597 33.9661 34.8549 33.4178 35.4989 33.3022L50.1007 33.2708C51.088 33.3174 51.4961 33.9229 51.5751 34.8458C51.9467 39.2128 51.2861 44.0826 51.5751 48.5033C51.5468 49.313 51.1269 50.1822 50.2198 50.1962C45.6042 49.8543 40.3611 50.6313 35.8198 50.1962V50.195Z" fill="white"/>
<path d="M9.57924 30.7624C9.18055 31.9104 8.27347 34.7921 8.27701 35.9005C8.28054 37.1244 10.1065 37.3507 11.0537 37.3647C13.9861 37.4079 17.7194 36.7837 20.7308 36.5422C22.1026 36.4325 23.6172 36.4699 24.976 36.3089C26.5826 36.1187 26.4104 34.343 25.2143 34.2053L10.6467 35.1398C13.0389 23.4774 22.3315 13.9688 33.8558 10.793C39.8515 9.14095 45.583 9.07562 51.5975 10.6763C63.3979 13.8183 72.7954 23.2243 75.2784 35.1398L60.8406 34.0991C60.2826 34.1586 59.6811 34.665 59.7613 35.2623C59.8745 36.107 60.5881 36.2202 61.3041 36.3054C63.1289 36.5224 65.1153 36.5049 66.9625 36.6577C69.3959 36.8596 74.0399 37.6599 76.2279 37.1874C76.9546 37.0299 77.6352 36.6402 77.6092 35.8142C77.5443 33.7818 75.8127 29.3355 74.908 27.3999C61.7677 -0.716548 19.7612 1.41736 9.57924 30.7624Z" fill="white"/>
<path d="M73.0113 47.3074C62.2655 48.0424 52.0045 55.1803 49.2903 65.725C48.7336 67.8881 47.7994 74.4671 48.6781 76.3222C48.7973 76.5742 48.9789 76.8472 49.2738 76.9021C50.0099 77.0397 53.0248 76.16 53.9012 75.8859C65.2415 72.3367 74.737 62.2004 77.2235 50.6582C77.3827 49.922 77.8168 48.6036 77.3379 47.9759C76.7057 47.1487 73.9868 47.2421 73.0113 47.3086V47.3074ZM50.51 74.571C50.4345 71.3777 50.7247 68.1424 51.7226 65.0973C54.9664 55.1978 65.0398 49.4203 75.2772 49.3736C72.9877 61.6941 62.7904 71.7977 50.51 74.571Z" fill="white"/>
<path d="M29.3994 54.0953C24.9359 50.1367 16.5445 46.6949 10.5028 47.3062C7.77098 47.5827 8.20506 48.5278 8.67688 50.6768C11.3769 62.9669 22.6712 74.6223 35.388 76.7516C36.7209 76.9744 37.3284 77.0152 37.5219 75.4308C38.4549 67.8286 35.1179 59.1658 29.3982 54.0941L29.3994 54.0953ZM35.4116 74.571C23.1194 71.8386 12.8797 61.7209 10.6444 49.3736C21.1448 49.3223 31.3775 55.5023 34.3819 65.732C35.2229 68.5951 35.5095 71.5912 35.4116 74.571Z" fill="white"/>
<path d="M45.9557 36.5539C44.7183 36.4057 41.2009 36.3975 39.9848 36.5714C38.9987 36.7125 37.9736 37.4861 37.8002 38.4941C37.6139 39.5815 37.628 43.7443 37.7696 44.8853C37.9135 46.0485 39.0883 46.8151 40.1912 46.9224C41.5265 47.0531 44.6523 47.0717 45.9699 46.9236C47.2025 46.7859 48.1438 45.8584 48.2676 44.6473C48.4045 43.3068 48.4198 40.1403 48.2688 38.815C48.1391 37.6797 47.0893 36.6892 45.9557 36.5539ZM46.1456 44.6485C46.0937 44.8293 45.7988 44.9227 45.6207 44.946C44.6134 45.0802 41.458 45.0592 40.4236 44.9425C40.0225 44.897 39.8208 44.8433 39.7701 44.4221C39.6392 43.3161 39.6462 40.2768 39.7748 39.1638C39.796 38.9841 39.8479 38.6761 40.0119 38.5816C40.4212 38.3424 42.9219 38.6446 43.6155 38.6458C44.3798 38.6458 45.4768 38.2071 46.1456 38.8161V44.6485Z" fill="white"/>
</svg>
