<svg width="77" height="80" viewBox="0 0 77 80" fill="none" xmlns="http://www.w3.org/2000/svg">
<path d="M76.8642 52.1009C76.6927 49.7544 75.3442 47.8687 72.9244 47.5694H62.6484C62.9421 45.283 61.4631 42.8587 59.0657 42.6195C57.1803 42.4321 55.2151 42.8351 53.3356 42.4769C52.2585 41.2429 51.8191 40.3071 50.0207 40.1457H18.4304C16.3184 40.2965 14.608 42.1374 14.3766 44.2093C14.2592 45.2571 14.4636 46.4981 14.3766 47.5682H3.982C3.79875 47.5682 2.66637 48.0113 2.43379 48.1363C1.05355 48.8752 0.302949 50.3366 0.166687 51.8711C-0.356039 57.7603 0.553153 64.4002 0.166687 70.3684C0.407494 73.0096 2.05202 74.5959 4.6821 74.7939L14.3766 74.7892C14.204 77.2347 15.4984 79.6354 18.0768 79.9736C31.9579 79.877 45.8835 80.174 59.7387 79.8239C61.8837 79.1168 62.8563 76.9494 62.6484 74.7892C65.7777 74.6265 69.122 75.0072 72.2266 74.7951C75.02 74.6041 76.6574 73.0897 76.8654 70.2576C76.5318 64.3413 77.2941 57.963 76.8654 52.1009H76.8642ZM14.3755 72.669H4.33323C4.21459 72.669 3.5603 72.3885 3.41229 72.2965C2.59355 71.7898 2.34451 70.94 2.27286 70.0219C1.82178 64.2659 2.61821 57.9241 2.27874 52.1068C2.20591 51.3148 3.32536 49.6896 4.09829 49.6896H14.3755V72.669ZM58.1318 77.9771H18.7757C17.2745 77.8463 16.5122 76.9436 16.484 75.4444V44.5605C16.5321 43.4185 17.3462 42.3166 18.5397 42.2624H49.9103C50.1664 42.2635 50.5646 42.3696 50.749 42.5393C51.2882 43.0343 51.6887 44.3142 52.6602 44.5688C53.9817 44.9153 56.7104 44.4993 58.2469 44.6195C59.3276 44.7043 60.1087 45.065 60.4823 46.148L60.5375 75.7968C60.4059 77.3124 59.5813 77.8734 58.1306 77.9771H58.1318ZM74.7498 70.3755C74.6828 71.1569 74.4526 71.7945 73.7701 72.2199C73.5963 72.3283 72.8374 72.669 72.6906 72.669H62.6484V49.6896H73.043C73.0865 49.6896 73.7114 50.0443 73.7995 50.1091C74.4056 50.5652 74.6464 51.2559 74.7451 51.9878C74.3669 57.9277 75.2525 64.5087 74.7498 70.3743V70.3755Z" fill="white"/>
<path d="M70.6361 3.7898C68.8518 2.3779 67.8839 4.08209 66.23 4.66665L63.8489 3.70613C63.2651 2.32958 63.5952 0.256514 61.6546 0.0750175C60.6421 -0.0192665 58.4196 -0.0322332 57.4212 0.0797291C55.658 0.276547 56.0021 2.35079 55.4207 3.61066L53.0561 4.64897C51.7945 4.25769 50.5106 2.76801 49.135 3.43153C48.7533 3.61539 46.2454 6.11979 45.9094 6.55822C44.7441 8.07737 46.4721 9.25239 46.9971 10.6443L46.142 12.92C44.8898 13.7627 42.6556 13.085 42.3607 15.0178C42.228 15.8923 42.2409 18.088 42.3314 18.9919C42.5557 21.2288 44.4657 20.6619 46.0339 21.4044C46.1279 21.481 46.969 23.4315 47.0065 23.6177C47.1616 24.3932 45.6639 25.5093 45.5265 26.4474C45.436 27.0626 45.7015 27.5859 46.088 28.0338C46.5508 28.5688 48.5724 30.5983 49.0834 30.9542C50.4142 31.8782 51.7863 30.174 52.9598 29.7014C53.5612 30.1257 54.6877 30.3095 55.2445 30.6655C56.0515 31.1817 55.4548 33.9241 57.2156 34.3449C58.3045 34.6054 60.7537 34.557 61.8766 34.3614C63.6222 34.0585 63.2898 32.0668 63.816 30.7692L66.2816 29.712C67.5973 30.2129 68.7766 31.8912 70.2755 30.887C70.8311 30.5146 73.0078 28.2282 73.3884 27.6472C74.3281 26.2129 72.6918 25.1852 72.1832 23.9183C72.1585 23.7698 72.9291 21.7073 73.0501 21.5329C73.4812 20.9094 75.9456 21.1781 76.5588 20.1033C76.9758 19.3726 76.9465 16.3909 76.8595 15.4598C76.6293 12.979 74.8179 13.7992 73.1041 12.9825L72.1879 10.7256C72.7423 9.18991 74.475 8.15751 73.2169 6.50519C72.7118 5.84166 71.2775 4.29776 70.6373 3.79098L70.6361 3.7898ZM69.976 10.8045C70.0394 11.2005 70.5903 12.0361 70.7736 12.491C70.9674 12.9754 71.3304 14.372 71.5712 14.6372C72.0986 15.2182 74.4409 15.2182 74.6899 15.633C74.7945 16.6961 74.9483 17.7415 74.7299 18.7998C74.0955 19.1487 71.8226 19.2924 71.4702 19.831C71.2857 20.1127 70.9721 21.3655 70.7736 21.8428C70.5328 22.425 69.8961 23.23 69.9231 23.824C69.9572 24.5712 71.5242 26.2023 71.4396 26.7456C71.395 27.0285 69.5143 28.9318 69.2806 28.9554C68.3655 28.8505 67.0393 27.2653 66.143 27.4421C65.7425 27.5211 64.9484 28.0774 64.4903 28.2659C63.9934 28.4698 62.4475 28.8953 62.1868 29.1357C61.6253 29.6519 61.5113 32.0809 61.1249 32.3131L58.0237 32.3767C57.7853 32.3107 57.5597 29.514 56.9407 29.0838C56.6188 28.8599 55.7966 28.7185 55.3702 28.5382C54.8099 28.3013 53.2734 27.4127 52.8411 27.4162C52.067 27.4221 50.7643 28.8458 49.9315 28.9365C49.7905 28.9 47.9369 27.0508 47.8441 26.8941C47.736 26.7126 47.7113 26.6937 47.7818 26.4757C47.9745 25.877 49.061 24.7963 49.2325 24.1504C49.4228 23.4398 48.8637 22.854 48.6194 22.2317C48.3022 21.4221 48.0626 20.5841 47.7019 19.7933L44.4998 18.8234L44.4387 15.5906C44.5092 15.3313 47.4905 15.1522 47.7184 14.5016C47.7572 13.6213 49.2584 11.2654 49.2267 10.6466C49.1867 9.87938 47.9298 8.45686 47.6491 7.6802C47.662 7.52345 49.7083 5.50341 49.8504 5.43859C50.0102 5.36552 50.0395 5.38085 50.1934 5.44213C51.0204 5.76859 52.1833 7.08857 53.1665 6.89293C53.5471 6.81751 54.2319 6.32723 54.6665 6.15516C55.1505 5.96306 56.7739 5.53406 57.0088 5.3231C57.4834 4.89646 57.6479 2.35197 58.0672 2.14219C58.2505 2.05026 60.6468 2.03141 60.9428 2.08798C61.1143 2.12098 61.2059 2.16931 61.2928 2.32605C61.6711 3.00018 61.6499 5.01196 62.3289 5.41149C62.7447 5.65663 63.9335 5.91474 64.5244 6.15516C65.1458 6.40737 65.7072 6.81515 66.3486 7.02611L69.2359 5.43625C69.472 5.48693 71.3621 7.3066 71.4396 7.5918C71.6193 8.25061 69.835 9.93005 69.976 10.8069V10.8045Z" fill="white"/>
<path d="M24.346 29.7038C36.8515 20.5547 29.6273 0.836398 13.9996 2.11866C7.13601 2.68201 1.14873 8.36026 0.295919 15.2371C-1.33099 28.365 13.5297 37.6166 24.346 29.7038ZM14.4695 4.12102C24.7995 3.34672 31.9403 14.3214 27.0043 23.5317C22.2845 32.3379 9.65683 32.8293 4.34382 24.3438C-0.937485 15.9089 4.63397 4.85761 14.4695 4.11984V4.12102Z" fill="white"/>
<path d="M34.0441 16.2188C33.8232 16.2459 33.5989 16.3449 33.4438 16.5016C32.7766 17.1722 33.2559 18.2047 34.1768 18.3343C35.0508 18.458 38.2341 18.4698 39.0916 18.3378C40.3509 18.1446 40.2569 16.3968 39.2103 16.2318C38.3116 16.0903 34.9791 16.1057 34.0441 16.22V16.2188Z" fill="white"/>
<path d="M56.2864 72.748L20.8009 72.695C19.4724 73.2724 19.9845 74.8222 21.3589 74.7963H55.5464C56.9231 74.8729 57.6244 73.4021 56.2864 72.7492V72.748Z" fill="white"/>
<path d="M56.3933 47.659L20.8021 47.5941C19.5922 48.2423 19.9645 49.5635 21.36 49.6943C22.4912 49.8004 23.6753 49.58 24.7654 49.5659C32.5217 49.4704 40.3062 49.6566 48.0215 49.6943C50.3966 49.7061 53.365 49.897 55.665 49.6943C56.9994 49.5765 57.5198 48.4957 56.3933 47.6578V47.659Z" fill="white"/>
<path d="M36.0304 67.1157C36.169 67.0426 36.5731 66.5948 36.5731 66.4828V62.8882H39.4511C39.639 62.8882 40.7397 62.524 40.9817 62.4203C43.6881 61.2512 43.8984 57.1451 41.3094 55.7215C40.0126 55.0072 36.9408 54.9684 35.4537 55.1063C34.7113 55.1758 34.3178 55.4304 34.2226 56.2271C33.8526 59.3125 34.4822 63.1699 34.2532 66.3367C34.3648 67.1605 35.3491 67.4728 36.0316 67.1157H36.0304ZM36.5743 56.9966H39.0998C39.3477 56.9966 40.1512 57.4351 40.3344 57.6437C40.9311 58.319 40.9781 59.7038 40.3332 60.3555C40.1429 60.5476 39.2079 61.0037 38.9824 61.0037H36.5743V56.9966Z" fill="white"/>
<path d="M31.4645 57.1145C31.5773 57.1145 32.0213 56.709 32.0953 56.57C32.4489 55.9017 32.0119 55.2641 31.32 55.1392C30.3603 54.966 26.6143 54.9872 25.59 55.1086C24.9475 55.1852 24.6456 55.5965 24.5892 56.2246C24.3038 59.3678 24.8159 62.9412 24.5916 66.1315C24.6738 66.8233 25.0508 67.1474 25.7204 67.2382C26.8434 67.3902 30.2029 67.3808 31.3377 67.2382C32.9423 67.0367 32.3185 65.2453 31.7006 65.2453H26.8258V61.9453H30.6434C30.9395 61.9453 31.3905 61.2724 31.3905 60.9436C31.3905 60.537 30.916 59.9418 30.526 59.9418H26.8258V57.1133H31.4657L31.4645 57.1145Z" fill="white"/>
<path d="M47.3472 65.2182C46.5837 64.9483 45.3491 63.8417 44.622 64.6584C43.5718 65.8393 45.5558 66.788 46.445 67.0662C49.4956 68.0232 53.4907 66.8646 52.8716 62.9754C52.4582 60.3826 48.8414 60.3755 47.2685 59.1687C45.9646 58.1693 47.4893 56.8941 48.7356 56.8741C49.6895 56.8587 50.9217 57.7698 51.4938 57.6566C52.4699 57.4633 52.5369 56.4192 51.7839 55.8169C50.8277 55.052 48.9964 54.8635 47.8206 55.0226C44.6079 55.4586 43.1959 59.2807 46.0492 61.0992C47.2297 61.8511 51.8473 62.715 50.2615 64.7786C49.5931 65.6496 48.267 65.5435 47.346 65.2182H47.3472Z" fill="white"/>
<path d="M58.9834 7.89239C53.1371 8.23535 48.8613 14.2672 50.6645 19.9395C52.6614 26.2247 60.3684 28.7504 65.5228 24.4687C72.5508 18.6302 68.0072 7.36204 58.9834 7.89121V7.89239ZM63.2721 23.507C57.8205 26.6549 51.2506 21.9124 52.4828 15.7462C53.0302 13.0061 55.5957 10.3897 58.3926 10.0091C66.5988 8.8918 70.0782 19.5777 63.2721 23.507Z" fill="white"/>
<path d="M12.7897 22.8234C13.4698 23.296 14.0665 23.0756 14.5528 22.471L23.3581 12.5688C23.7152 11.837 22.9541 10.92 22.214 11.0568C22.0272 11.0909 21.649 11.382 21.4939 11.5223L13.4722 20.4533L13.1385 20.3555L8.96144 16.1776C7.83963 15.659 7.03263 16.814 7.85607 17.8758C8.50214 18.7091 11.9979 22.2707 12.792 22.8222L12.7897 22.8234Z" fill="white"/>
<path d="M60.4201 12.6266C59.774 12.1422 59.4122 12.1446 58.7697 12.6266C58.1753 13.0721 56.3686 14.9118 55.8941 15.5153C55.4876 16.0315 55.0248 16.7233 55.658 17.2866C56.7234 18.2354 57.7665 16.3945 58.5382 15.87V21.2312C58.5382 21.2949 58.8108 21.857 58.8871 21.9419C59.4792 22.6031 60.6526 22.0597 60.6526 21.3491V15.87C61.3234 16.1022 62.0869 17.4599 62.7189 17.52C63.8184 17.6249 64.0392 16.5041 63.4718 15.692C63.1347 15.21 60.9134 12.9967 60.4201 12.6255V12.6266Z" fill="white"/>
</svg>
