<svg width="77" height="75" viewBox="0 0 77 75" fill="none" xmlns="http://www.w3.org/2000/svg">
<path d="M75.4602 14.2801C74.6764 12.1914 73.6771 11.747 71.5198 11.6181C70.5618 11.5614 68.9118 11.5223 67.9844 11.6228C66.5885 11.7729 66.359 12.7399 65.574 13.6324C64.2206 10.9514 63.119 8.08605 61.6325 5.47483C59.5258 1.77138 56.6435 1.21344 52.6855 0.751252C44.8414 -0.164859 36.4428 -0.193229 28.5645 0.396628C24.1558 0.72761 18.5701 0.604671 15.8384 4.63438C14.0189 7.3177 13.015 10.8627 11.2637 13.6324C10.8047 12.5602 10.2798 11.7588 9.02876 11.6228C7.60822 11.4692 4.12923 11.5259 2.9323 12.2387C1.63769 13.0094 0.63142 15.8972 1.14691 17.2944C1.84012 19.1751 5.33911 19.1929 6.96797 19.7815C7.01623 19.96 6.92207 19.9778 6.85263 20.0771C6.08999 21.1776 4.66709 22.0901 3.81382 23.407C0.703212 28.2086 2.96997 38.2893 2.25675 43.9539C2.39798 45.7672 3.69377 47.3925 5.52742 47.642C7.18806 47.8677 11.558 47.8441 13.2622 47.6715C14.9287 47.5025 16.3069 45.9362 16.4999 44.3049C16.6364 43.1524 16.3998 41.7611 16.4999 40.5814H27.5029C28.0372 39.9277 28.8811 39.4726 29.386 38.8094C29.4766 38.6901 29.6131 38.6605 29.5614 38.4536H15.616C15.2288 38.4536 14.6462 38.9761 14.5485 39.391C14.0742 41.4088 15.6442 45.4019 12.5607 45.6679C10.9707 45.805 7.77652 45.8204 6.20297 45.662C4.90483 45.5308 4.36462 44.8723 4.25634 43.5992C3.94446 39.936 4.27164 35.2644 4.38345 31.5444C4.48937 27.9946 4.0339 25.8858 6.66903 23.0843C7.71767 21.9684 11.6839 19.2886 8.61331 18.0675C7.5988 17.6632 3.66435 17.1112 3.19947 16.6514C2.87581 16.331 3.52077 14.5177 3.78793 14.1631C4.09981 13.7482 5.1049 13.6726 5.61569 13.6359C6.15472 13.5981 8.38381 13.539 8.76984 13.6572C9.60428 13.9137 10.6635 18.8442 12.2865 16.4351C13.3281 14.8889 14.2378 12.2742 15.104 10.5188C15.8196 9.06717 17.2025 5.85664 18.2605 4.82469C20.0459 3.08112 23.705 2.8719 26.0918 2.64376C34.7528 1.81276 44.6342 1.7241 53.2599 2.89436C55.7091 3.22652 58.1276 3.65916 59.547 5.91693C61.4995 9.02107 62.6953 13.1394 64.5701 16.2365C64.8396 16.6821 65.0738 17.1455 65.7176 17.0427C66.7863 16.8713 67.4136 14.3984 68.1209 13.6536C69.1778 13.7257 72.2331 13.3865 73.0157 13.987C73.3711 14.26 74.0467 16.3039 73.6948 16.6526C73.1911 17.1502 69.2531 17.6349 68.1962 18.103C65.8871 19.1255 68.3104 21.2698 69.2755 22.2663C71.3939 24.4519 72.4426 25.3515 72.6379 28.6991C72.9286 33.6816 72.4037 38.9454 72.6379 43.9574C72.5402 44.9752 71.7799 45.5662 70.8066 45.6643C69.2319 45.8227 66.0401 45.8062 64.4489 45.6702C61.3677 45.4055 62.9507 41.4479 62.4305 39.4241C62.2798 38.8378 61.7514 38.4572 61.1582 38.4572H47.4482C47.3965 38.6641 47.533 38.6936 47.6236 38.813C48.0885 39.4218 48.89 39.9762 49.389 40.5849H60.392V44.0721C60.392 45.6537 62.0786 47.4611 63.638 47.6668C65.1209 47.8618 70.011 47.8594 71.4822 47.6455C73.4135 47.3653 74.6057 45.714 74.7528 43.8392C75.073 39.7823 74.7787 34.5942 74.6257 30.4841C74.5798 29.2358 74.6999 28.1022 74.481 26.8468C73.9502 23.8053 71.9494 21.8951 69.9239 19.7839C73.3464 18.8477 77.2915 19.1739 75.4566 14.2837L75.4602 14.2801Z" fill="white"/>
<path d="M37.6292 55.7049C35.506 55.5217 33.1263 55.8503 30.976 55.7096C31.1255 53.9105 30.6218 51.9033 28.6292 51.5073C23.6438 51.7343 18.0652 51.0251 13.1445 51.4506C11.7616 51.57 10.6164 52.4885 10.414 53.9082C10.3293 54.5004 10.5023 55.1351 10.2728 55.6576C9.97971 55.8633 4.56704 55.6163 3.61726 55.7108C1.27872 55.9437 -0.2301 58.0773 0.0288232 60.3765C0.869146 63.9298 1.53175 67.5399 2.43798 71.0767C2.97231 73.1607 3.39482 74.6229 5.84753 74.9799C15.9914 74.8688 26.1836 75.1785 36.2981 74.8239C37.4526 74.3853 38.2282 73.4526 38.5919 72.2824C39.8065 68.3792 40.3208 63.7832 41.3306 59.7878C41.1846 57.6719 39.8124 55.894 37.6292 55.7061V55.7049ZM39.2004 60.3658C38.8202 63.9357 37.1137 68.0186 36.6853 71.6677C36.5346 72.3746 35.8944 72.9455 35.16 72.9715L5.69806 72.8852C5.32027 72.78 5.01192 72.5755 4.82832 72.2221C4.02212 68.4371 2.83108 64.6249 2.20025 60.7961C2.0802 60.0632 1.93544 59.666 2.24026 58.9367C2.53449 58.2322 3.11001 57.822 3.86559 57.7322C6.21002 57.4532 9.01698 57.9426 11.3897 57.7251C13.4563 57.5359 11.5638 54.5016 12.9385 53.6079L28.3268 53.5854C29.5119 53.8136 28.1573 57.1813 29.559 57.6672L37.5091 57.7204C38.9426 57.9438 39.3451 59.0289 39.2027 60.3682L39.2004 60.3658Z" fill="white"/>
<path d="M75.9804 62.0987C75.2059 61.9782 70.9337 62.2796 70.7525 62.0905C70.3041 58.0667 67.3947 54.6895 63.4567 53.758C61.6808 53.3372 57.1143 53.2438 55.2748 53.4613C54.784 53.5192 54.2449 53.9873 54.159 54.4684C54.0013 55.3574 54.2756 56.6612 54.159 57.6009H46.4514C45.8182 57.6009 45.2674 58.4792 45.5404 59.1069C45.5899 59.2204 46.0571 59.7275 46.0983 59.7275H54.159V66.8188H46.216C45.6828 66.8188 45.1697 67.9524 45.6828 68.5364C45.7523 68.6156 46.2925 68.9465 46.3337 68.9465H54.159V71.9608C54.159 72.637 55.0358 73.0791 55.6361 73.0885C58.0982 73.1252 62.5776 73.2079 64.7819 72.3474C68.1585 71.0294 70.3123 67.8023 70.8619 64.2714L76.317 64.1946C77.3656 63.7005 77.1702 62.2843 75.9815 62.0999L75.9804 62.0987ZM66.9275 68.2397C64.3465 71.3521 60.8957 70.9218 57.2755 70.8296C57.0837 70.8249 56.2763 71.1121 56.2763 70.7788V55.5914H61.8655C62.1609 55.5914 63.1119 55.8917 63.4567 56.0028C68.6293 57.6707 70.41 64.0397 66.9275 68.2397Z" fill="white"/>
<path d="M47.1669 44.5993C47.8613 44.6714 48.4015 43.9432 48.2509 43.267C48.1967 43.0235 46.7068 41.4466 46.3937 41.1098C44.3411 38.9016 41.9944 36.9051 40.0442 34.6284L48.1614 26.3456C48.6381 25.0382 47.58 24.2309 46.4525 25.102C44.2811 26.7794 41.8861 29.8445 39.8618 31.8387C39.4287 32.2654 38.8379 32.6295 38.4471 33.1343L30.3275 24.9815C30.0498 24.7214 29.6543 24.6895 29.2942 24.7699C28.4974 24.9484 28.4668 26.0725 28.9752 26.5761L36.9748 34.6142L28.6739 43.1772C28.3938 44.0449 29.1965 44.825 30.0403 44.5496L38.4483 36.2065L38.7484 36.3826C41.107 38.7409 43.4278 41.1381 45.8064 43.4763C46.1477 43.812 46.6044 44.5437 47.1669 44.6016V44.5993Z" fill="white"/>
<path d="M61.8373 19.0403C62.9307 18.707 62.6811 16.9977 61.5172 17.0532C50.6177 17.9895 39.7088 18.1656 28.7975 17.7708C24.5571 17.6171 20.3119 17.1986 16.0891 17.0615C15.7714 17.0509 15.3571 17.0178 15.0558 17.0852C14.5638 17.1963 14.2825 17.8902 14.4344 18.3654C14.7745 19.4363 16.421 19.1242 17.266 19.1881C32.1094 20.317 47.0081 20.3642 61.8373 19.0391V19.0403Z" fill="white"/>
<path d="M57.1578 34.1969C59.3328 34.0952 63.2202 33.5598 65.3633 33.1023C70.47 32.0136 69.7698 24.2958 64.8396 24.7757C63.5438 24.9022 57.8252 26.9768 56.6647 27.6742C54.1885 29.1636 52.7467 34.4026 57.1578 34.1957V34.1969ZM56.8001 30.4095C56.9695 30.1022 57.4733 29.549 57.7651 29.3693C58.3289 29.0218 63.9228 27.0063 64.6019 26.8987C66.5532 26.5902 67.3582 28.0548 66.6356 29.7688C66.1284 30.971 65.0974 31.0431 63.9687 31.2275C61.7078 31.5963 59.0445 31.9699 56.7706 32.1649C56.0103 32.2299 56.5988 30.7772 56.8012 30.4107L56.8001 30.4095Z" fill="white"/>
<path d="M19.4398 27.2878C17.9357 26.5951 12.995 24.7002 11.5391 24.7711C8.91931 24.8988 7.51877 27.6719 8.22845 30.0373C8.84281 32.0823 10.281 32.8447 12.2406 33.2171C14.3861 33.6249 17.6956 34.0871 19.8565 34.1958C23.1789 34.3625 23.1059 31.4345 21.7737 29.198C21.1887 28.2157 20.4461 27.7511 19.4398 27.2866V27.2878ZM20.2142 32.1946C17.6274 31.5964 14.4214 31.7548 11.9075 31.0716C9.78905 30.4947 9.48541 27.2346 11.2932 26.8988C11.5497 26.8516 11.8287 26.8504 12.0888 26.8717C12.9044 26.9367 18.1381 28.8386 18.9785 29.289C19.7517 29.7027 20.2013 30.2737 20.4461 31.1236C20.5603 31.5161 20.8204 32.2454 20.2142 32.1957V32.1946Z" fill="white"/>
<path d="M33.7453 64.2147C29.1024 63.8542 23.7309 64.3329 19.0373 64.3423C15.3747 64.3494 10.8612 63.8352 7.29987 64.2537C6.82675 64.3092 6.14649 64.3944 6.03115 64.989C5.87815 65.7798 6.26182 66.2561 7.02682 66.3483H34.3338C35.08 66.3011 35.5025 65.45 35.1447 64.8199C34.8587 64.3152 34.2832 64.2549 33.7477 64.2135L33.7453 64.2147Z" fill="white"/>
<path d="M12.1158 68.6191C10.9801 68.8496 10.9154 70.4667 12.2347 70.6913C13.0762 70.8343 14.3214 70.7043 14.2743 69.599C14.2296 68.5588 12.8985 68.4607 12.1158 68.6191Z" fill="white"/>
<path d="M17.412 68.6203C16.9777 68.6995 16.6399 68.9678 16.5481 69.4146C16.1633 71.2929 20.2025 71.131 19.4516 69.2349C19.1597 68.4985 18.0805 68.4997 17.412 68.6203Z" fill="white"/>
<path d="M19.5446 60.9687C19.5469 59.9001 18.0428 59.8197 17.2908 59.9888C16.9859 60.0573 16.5834 60.4522 16.5211 60.7595C16.1809 62.4274 19.5399 62.6071 19.5446 60.9687Z" fill="white"/>
<path d="M22.707 68.6202C21.5065 68.8389 21.4653 70.3993 22.7317 70.6676C23.519 70.8343 24.8772 70.7113 24.8219 69.6155C24.7678 68.5304 23.532 68.4701 22.707 68.6202Z" fill="white"/>
<path d="M22.8247 62.0632C25.0549 62.4415 25.4704 60.2086 23.845 59.9757C23.5249 59.9296 23.0247 59.9343 22.707 59.9922C21.4406 60.2227 21.5242 61.8422 22.8247 62.0632Z" fill="white"/>
<path d="M12.2335 62.0633C13.0892 62.2217 14.3791 61.9971 14.2649 60.8611C14.1696 59.9178 12.8149 59.8493 12.1158 59.9911C10.9519 60.2275 11.0001 61.834 12.2335 62.0633Z" fill="white"/>
<path d="M6.93854 68.6203C6.303 68.7361 5.90755 69.2728 6.05114 69.9253C6.31006 71.1026 9.37124 71.144 8.94519 69.2681C8.77454 68.5139 7.54701 68.5092 6.93854 68.6203Z" fill="white"/>
<path d="M6.589 61.9416C7.30928 62.2655 8.82163 62.1827 8.96521 61.1957C9.14646 59.951 7.89068 59.8174 6.93855 59.9912C5.90168 60.1803 5.67571 61.5302 6.589 61.9404V61.9416Z" fill="white"/>
<path d="M30.0415 60.9687C30.0439 59.9462 28.6445 59.8363 27.8854 59.9911C27.2004 60.1306 26.925 60.7606 27.1181 61.4167C27.3887 62.3375 30.038 62.4853 30.0415 60.9687Z" fill="white"/>
<path d="M33.2981 62.0633C34.2997 62.2335 35.3954 61.9569 35.2047 60.7394C35.0658 59.8504 33.8701 59.867 33.1804 59.9923C31.9576 60.2145 31.9823 61.8399 33.2981 62.0633Z" fill="white"/>
<path d="M27.8842 68.619C27.6124 68.6746 27.2346 68.9016 27.144 69.1758C26.4166 71.3768 30.6853 71.157 29.9239 69.2349C29.6367 68.5103 28.5421 68.4855 27.8842 68.6202V68.619Z" fill="white"/>
<path d="M33.1804 68.6203C32.0117 68.8319 31.9505 70.462 33.2981 70.6913C34.2997 70.8615 35.3954 70.5849 35.2047 69.3674C35.0658 68.4785 33.8713 68.495 33.1804 68.6203Z" fill="white"/>
</svg>
