<svg width="62" height="47" viewBox="0 0 62 47" fill="none" xmlns="http://www.w3.org/2000/svg">
<g filter="url(#filter0_di_3202_158)">
<path d="M14.5898 15.4142C13.3299 14.1543 14.2222 12 16.004 12L45.9451 12C47.727 12 48.6193 14.1543 47.3593 15.4142L32.3888 30.3848C31.6077 31.1658 30.3414 31.1658 29.5604 30.3848L14.5898 15.4142Z" fill="url(#paint0_linear_3202_158)"/>
<path d="M16.0039 12.5L45.9453 12.5C47.2815 12.5001 47.9506 14.1156 47.0059 15.0605L32.0352 30.0312C31.4494 30.617 30.4998 30.6169 29.9141 30.0312L14.9434 15.0605C13.9985 14.1156 14.6676 12.5001 16.0039 12.5Z" stroke="url(#paint1_linear_3202_158)"/>
</g>
<defs>
<filter id="filter0_di_3202_158" x="0" y="0" width="61.9492" height="46.9707" filterUnits="userSpaceOnUse" color-interpolation-filters="sRGB">
<feFlood flood-opacity="0" result="BackgroundImageFix"/>
<feColorMatrix in="SourceAlpha" type="matrix" values="0 0 0 0 0 0 0 0 0 0 0 0 0 0 0 0 0 0 127 0" result="hardAlpha"/>
<feOffset dy="2"/>
<feGaussianBlur stdDeviation="7"/>
<feComposite in2="hardAlpha" operator="out"/>
<feColorMatrix type="matrix" values="0 0 0 0 0.109804 0 0 0 0 0.360784 0 0 0 0 0.709804 0 0 0 0.5 0"/>
<feBlend mode="normal" in2="BackgroundImageFix" result="effect1_dropShadow_3202_158"/>
<feBlend mode="normal" in="SourceGraphic" in2="effect1_dropShadow_3202_158" result="shape"/>
<feColorMatrix in="SourceAlpha" type="matrix" values="0 0 0 0 0 0 0 0 0 0 0 0 0 0 0 0 0 0 127 0" result="hardAlpha"/>
<feOffset/>
<feGaussianBlur stdDeviation="7"/>
<feComposite in2="hardAlpha" operator="arithmetic" k2="-1" k3="1"/>
<feColorMatrix type="matrix" values="0 0 0 0 0.567308 0 0 0 0 0.815574 0 0 0 0 1 0 0 0 1 0"/>
<feBlend mode="normal" in2="shape" result="effect2_innerShadow_3202_158"/>
</filter>
<linearGradient id="paint0_linear_3202_158" x1="28.6599" y1="4.25369" x2="43.0044" y2="33.5636" gradientUnits="userSpaceOnUse">
<stop stop-color="#007FBF"/>
<stop offset="0.495192" stop-color="#006496"/>
<stop offset="1" stop-color="#0076B1"/>
</linearGradient>
<linearGradient id="paint1_linear_3202_158" x1="28.6599" y1="30.9706" x2="28.6599" y2="11.5257" gradientUnits="userSpaceOnUse">
<stop stop-color="#C2E5FF"/>
<stop offset="0.5" stop-color="white"/>
<stop offset="1" stop-color="#1C5CB5"/>
</linearGradient>
</defs>
</svg>
