<svg width="143" height="34" viewBox="0 0 143 34" fill="none" xmlns="http://www.w3.org/2000/svg">
<path d="M143 15.7373L135.616 18.8632V20.3052L143 23.4311V21.7741L137.718 19.5887L143 17.4211V15.7373Z" fill="#70C1FF"/>
<path d="M142.956 13.2558L141.26 12.5214V9.37756L142.956 8.64311V7.02194L135.581 10.2105V11.6794L142.956 14.868V13.2558ZM140.015 12.0467L137.471 10.9539L140.015 9.87018V12.0467Z" fill="#70C1FF"/>
<path d="M142.956 2.82137C142.956 1.96152 142.735 1.27186 142.293 0.761322C141.852 0.250788 141.269 0 140.562 0C139.856 0 139.273 0.250788 138.822 0.761322C138.372 1.27186 138.151 1.95257 138.151 2.82137V4.49628H136.976V0.635928H135.625V6.03684H142.956V2.82137ZM139.405 4.50524V2.94676C139.405 2.50788 139.502 2.16753 139.697 1.9257C139.891 1.68387 140.165 1.55847 140.527 1.55847C140.889 1.55847 141.154 1.67491 141.348 1.91674C141.534 2.15857 141.631 2.49893 141.631 2.94676V4.50524H139.405Z" fill="#70C1FF"/>
<path d="M116.961 13.6946H125.67V23.4306H131.606V0.00874681H125.67V8.33851H116.961V0.00874681H111.026V23.4306H116.961V13.6946Z" fill="#70C1FF"/>
<path d="M2.34064 28.4737C1.77535 28.4737 1.30723 28.7334 0.945089 29.2529V28.5543H0V34H0.945089V32.0833C1.30723 32.5759 1.77535 32.8177 2.34064 32.8177C2.86177 32.8177 3.31223 32.6207 3.69203 32.2266C4.07183 31.8325 4.26615 31.304 4.26615 30.6502C4.26615 29.9963 4.08067 29.45 3.69203 29.0559C3.31223 28.6618 2.86177 28.4647 2.34064 28.4647V28.4737ZM2.95892 31.6175C2.72928 31.8683 2.45547 31.9937 2.11983 31.9937C1.78419 31.9937 1.51038 31.8683 1.2719 31.6175C1.03342 31.3667 0.918591 31.0443 0.918591 30.6591C0.918591 30.274 1.03342 29.9426 1.2719 29.6829C1.51038 29.4321 1.79302 29.3067 2.11983 29.3067C2.44663 29.3067 2.72928 29.4321 2.95009 29.6739C3.17974 29.9247 3.29456 30.2471 3.29456 30.6412C3.29456 31.0353 3.17974 31.3757 2.95892 31.6175Z" fill="#70C1FF"/>
<path d="M7.64902 28.491C7.11023 28.491 6.58911 28.6074 6.08565 28.8403L6.3418 29.6106C6.7481 29.4404 7.14557 29.3508 7.51654 29.3508C7.84334 29.3508 8.09949 29.4314 8.26731 29.5837C8.44396 29.736 8.53228 29.9599 8.53228 30.2465V30.3271C8.17015 30.2107 7.79035 30.1569 7.39288 30.1569C6.88942 30.1569 6.49195 30.2734 6.18281 30.5062C5.87367 30.7391 5.72351 31.0795 5.72351 31.5273C5.72351 31.9393 5.86484 32.2618 6.14748 32.4857C6.43012 32.7186 6.7746 32.826 7.18973 32.826C7.74618 32.826 8.18781 32.629 8.52345 32.2259V32.7365H9.45971V30.2644C9.45971 29.7001 9.30955 29.2613 9.00041 28.9567C8.7001 28.6522 8.24964 28.4999 7.64902 28.4999V28.491ZM8.54995 31.2228C8.54995 31.4825 8.44396 31.6885 8.24081 31.8587C8.03766 32.0199 7.77268 32.1005 7.45471 32.1005C7.22506 32.1005 7.03957 32.0468 6.88059 31.9304C6.73043 31.8229 6.65094 31.6706 6.65094 31.4825C6.65094 31.2676 6.73043 31.1063 6.89825 30.9899C7.06607 30.8735 7.29572 30.8197 7.59603 30.8197C7.94933 30.8197 8.25847 30.8735 8.54112 30.9899V31.2228H8.54995Z" fill="#70C1FF"/>
<path d="M13.6729 30.5425C14.1057 30.3544 14.3177 30.0409 14.3177 29.5931C14.3177 29.2617 14.1764 28.993 13.8849 28.787C13.6023 28.572 13.2313 28.4735 12.7808 28.4735C12.1184 28.4735 11.5531 28.6705 11.1026 29.0736L11.5266 29.6737C11.8446 29.3871 12.242 29.2438 12.6925 29.2438C12.8868 29.2438 13.0546 29.2886 13.1783 29.3781C13.3019 29.4677 13.3726 29.5752 13.3726 29.7185C13.3726 29.8797 13.3108 30.0051 13.1783 30.1126C13.0458 30.2111 12.8691 30.2648 12.6483 30.2648H12.1449V30.9545H12.6483C12.9133 30.9545 13.1165 30.9993 13.2666 31.0978C13.4168 31.1963 13.4874 31.3217 13.4874 31.474C13.4874 31.6442 13.4079 31.7785 13.2578 31.886C13.1076 31.9935 12.9221 32.0472 12.7013 32.0472C12.2244 32.0472 11.7916 31.886 11.4029 31.5456L10.9613 32.1816C11.4559 32.6115 12.0565 32.8175 12.7632 32.8175C13.2489 32.8175 13.6464 32.6921 13.9556 32.4503C14.2647 32.2084 14.4149 31.9039 14.4149 31.5456C14.4149 31.053 14.1675 30.7127 13.6641 30.5335L13.6729 30.5425Z" fill="#70C1FF"/>
<path d="M18.5219 28.4737C17.9566 28.4737 17.4885 28.7334 17.1264 29.2529V28.5543H16.1813V34H17.1264V32.0833C17.4885 32.5759 17.9566 32.8177 18.5219 32.8177C19.0431 32.8177 19.4935 32.6207 19.8733 32.2266C20.2531 31.8325 20.4474 31.304 20.4474 30.6502C20.4474 29.9963 20.262 29.45 19.8733 29.0559C19.4935 28.6618 19.0431 28.4647 18.5219 28.4647V28.4737ZM19.1402 31.6175C18.9106 31.8683 18.6368 31.9937 18.3011 31.9937C17.9655 31.9937 17.6917 31.8683 17.4532 31.6175C17.2147 31.3667 17.0999 31.0443 17.0999 30.6591C17.0999 30.274 17.2147 29.9426 17.4532 29.6829C17.6917 29.4321 17.9743 29.3067 18.3011 29.3067C18.6279 29.3067 18.9106 29.4321 19.1314 29.6739C19.361 29.9247 19.4759 30.2471 19.4759 30.6412C19.4759 31.0353 19.361 31.3757 19.1402 31.6175Z" fill="#70C1FF"/>
<path d="M23.8304 28.491C23.2916 28.491 22.7705 28.6074 22.2671 28.8403L22.5232 29.6106C22.9383 29.4404 23.327 29.3508 23.6979 29.3508C24.0247 29.3508 24.2809 29.4314 24.4487 29.5837C24.6254 29.736 24.7137 29.9599 24.7137 30.2465V30.3271C24.3516 30.2107 23.9718 30.1569 23.5743 30.1569C23.0797 30.1569 22.6734 30.2734 22.3642 30.5062C22.0551 30.7391 21.9049 31.0795 21.9049 31.5273C21.9049 31.9393 22.0462 32.2618 22.3289 32.4857C22.6115 32.7186 22.956 32.826 23.3711 32.826C23.9276 32.826 24.3692 32.629 24.7049 32.2259V32.7365H25.6411V30.2644C25.6411 29.7001 25.491 29.2613 25.1818 28.9567C24.8815 28.6522 24.431 28.4999 23.8304 28.4999V28.491ZM24.7314 31.2228C24.7314 31.4825 24.6254 31.6885 24.4222 31.8587C24.2191 32.0199 23.9541 32.1005 23.6361 32.1005C23.4065 32.1005 23.221 32.0468 23.062 31.9304C22.9118 31.8229 22.8323 31.6706 22.8323 31.4825C22.8323 31.2676 22.9118 31.1063 23.0797 30.9899C23.2475 30.8735 23.4771 30.8197 23.7774 30.8197C24.1307 30.8197 24.4399 30.8735 24.7225 30.9899V31.2228H24.7314Z" fill="#70C1FF"/>
<path d="M29.7218 28.6702C29.3243 28.6702 28.9975 28.7508 28.7237 28.9031C28.4587 29.0553 28.2644 29.2434 28.1319 29.4494C28.1584 29.1449 28.2556 28.8851 28.4145 28.6881C28.5735 28.4821 28.8473 28.3477 29.2183 28.2671L31.4618 27.7656L31.3028 26.9953L29.0593 27.47C28.812 27.5237 28.6 27.6043 28.4145 27.7029C28.2291 27.8014 28.0789 27.9357 27.9641 28.079C27.8493 28.2313 27.7521 28.3836 27.6726 28.5537C27.5931 28.715 27.5401 28.912 27.5048 29.127C27.4695 29.3509 27.443 29.5479 27.4341 29.736C27.4253 29.9241 27.4165 30.1391 27.4165 30.3899C27.4165 31.1602 27.6019 31.7603 27.9817 32.1812C28.3527 32.6111 28.8738 32.8172 29.5451 32.8172C30.1546 32.8172 30.6669 32.6111 31.082 32.1902C31.4971 31.7692 31.6914 31.2766 31.6914 30.6855C31.6914 30.0943 31.4971 29.6375 31.1085 29.2434C30.7199 28.8493 30.2606 28.6523 29.7218 28.6523V28.6702ZM30.4107 31.6259C30.1899 31.8677 29.9073 31.9931 29.5539 31.9931C29.2006 31.9931 28.9357 31.8677 28.706 31.617C28.4764 31.3662 28.3615 31.0706 28.3615 30.7034C28.3615 30.3361 28.4764 30.0316 28.6972 29.7898C28.918 29.539 29.2006 29.4136 29.5451 29.4136C29.8896 29.4136 30.1722 29.539 30.4019 29.7898C30.6315 30.0406 30.7464 30.3451 30.7464 30.7034C30.7464 31.0616 30.6404 31.3751 30.4195 31.617L30.4107 31.6259Z" fill="#70C1FF"/>
<path d="M35.4011 28.4735C34.774 28.4735 34.2528 28.6884 33.8377 29.1094C33.4137 29.5304 33.2106 30.0499 33.2106 30.6589C33.2106 31.268 33.4226 31.7785 33.8377 32.1995C34.2528 32.6204 34.774 32.8354 35.4011 32.8354C36.0282 32.8354 36.5582 32.6204 36.9733 32.1995C37.3973 31.7785 37.6004 31.259 37.6004 30.6589C37.6004 30.0588 37.3884 29.5304 36.9733 29.1094C36.5582 28.6884 36.037 28.4735 35.4099 28.4735H35.4011ZM36.302 31.6083C36.0724 31.8681 35.7721 31.9935 35.4011 31.9935C35.0301 31.9935 34.7386 31.8591 34.5002 31.5994C34.2617 31.3396 34.138 31.0172 34.138 30.65C34.138 30.2827 34.2528 29.9513 34.4825 29.6916C34.7121 29.4319 35.0125 29.3065 35.3834 29.3065C35.7544 29.3065 36.0459 29.4408 36.2843 29.7006C36.5228 29.9603 36.6465 30.2827 36.6465 30.65C36.6465 31.0172 36.5317 31.3486 36.302 31.6083Z" fill="#70C1FF"/>
<path d="M38.731 29.378H40.0559V32.7278H41.001V29.378H42.3347V28.554H38.731V29.378Z" fill="#70C1FF"/>
<path d="M47.6961 28.554H46.5921L44.7902 30.5603V28.554H43.8628V32.7278H44.7902V31.7246L45.4615 31.0081L46.7157 32.7278H47.8286L46.0974 30.3095L47.6961 28.554Z" fill="#70C1FF"/>
<path d="M50.7522 28.491C50.2134 28.491 49.6923 28.6074 49.1888 28.8403L49.445 29.6106C49.8513 29.4404 50.2488 29.3508 50.6197 29.3508C50.9465 29.3508 51.2027 29.4314 51.3705 29.5837C51.5471 29.736 51.6355 29.9599 51.6355 30.2465V30.3271C51.2733 30.2107 50.8935 30.1569 50.4961 30.1569C50.0014 30.1569 49.5951 30.2734 49.286 30.5062C48.9769 30.7391 48.8267 31.0795 48.8267 31.5273C48.8267 31.9393 48.968 32.2618 49.2507 32.4857C49.5333 32.7096 49.8778 32.826 50.2929 32.826C50.8494 32.826 51.291 32.629 51.6266 32.2259V32.7365H52.5629V30.2644C52.5629 29.7001 52.4127 29.2613 52.1036 28.9567C51.8033 28.6522 51.3528 28.4999 50.7522 28.4999V28.491ZM51.6531 31.2228C51.6531 31.4825 51.5471 31.6885 51.344 31.8587C51.1408 32.0199 50.8759 32.1005 50.5579 32.1005C50.3282 32.1005 50.1428 32.0468 49.9926 31.9304C49.8424 31.8229 49.763 31.6706 49.763 31.4825C49.763 31.2676 49.8424 31.1063 50.0103 30.9899C50.1781 30.8735 50.4077 30.8197 50.708 30.8197C51.0614 30.8197 51.3705 30.8735 51.6531 30.9899V31.2228Z" fill="#70C1FF"/>
<path d="M59.5317 31.9935C59.1696 31.9935 58.8781 31.8681 58.6485 31.6083C58.4188 31.3486 58.304 31.0351 58.304 30.65V30.6321C58.304 30.2648 58.4188 29.9513 58.6396 29.6916C58.8693 29.4319 59.1519 29.3065 59.4876 29.3065C59.8762 29.3065 60.2295 29.4766 60.5563 29.826L61.1393 29.19C60.7065 28.7064 60.1589 28.4735 59.4964 28.4735C58.887 28.4735 58.3835 28.6884 57.9684 29.1184C57.5621 29.5483 57.3589 30.0588 57.3589 30.6589V30.6768C57.3589 31.2769 57.5621 31.7875 57.9684 32.2084C58.3747 32.6294 58.8781 32.8354 59.4876 32.8354C59.8585 32.8354 60.1765 32.7727 60.4415 32.6294C60.7065 32.4951 60.945 32.298 61.1746 32.0472L60.6093 31.474C60.2737 31.8233 59.9204 31.9935 59.5406 31.9935H59.5317Z" fill="#70C1FF"/>
<path d="M64.4251 28.491C63.8863 28.491 63.3652 28.6074 62.8617 28.8403L63.1178 29.6106C63.5241 29.4404 63.9216 29.3508 64.2926 29.3508C64.6194 29.3508 64.8755 29.4314 65.0434 29.5837C65.22 29.736 65.3083 29.9599 65.3083 30.2465V30.3271C64.9462 30.2107 64.5664 30.1569 64.1689 30.1569C63.6743 30.1569 63.268 30.2734 62.9589 30.5062C62.6497 30.7391 62.4996 31.0795 62.4996 31.5273C62.4996 31.9393 62.6409 32.2618 62.9235 32.4857C63.2062 32.7186 63.5506 32.826 63.9658 32.826C64.5222 32.826 64.9639 32.629 65.2995 32.2259V32.7365H66.2358V30.2644C66.2358 29.7001 66.0856 29.2613 65.7765 28.9567C65.4762 28.6522 65.0257 28.4999 64.4251 28.4999V28.491ZM65.3172 31.2228C65.3172 31.4825 65.2112 31.6885 65.008 31.8587C64.8049 32.0199 64.5399 32.1005 64.2219 32.1005C63.9923 32.1005 63.8068 32.0468 63.6478 31.9304C63.4976 31.8229 63.4182 31.6706 63.4182 31.4825C63.4182 31.2676 63.4976 31.1063 63.6655 30.9899C63.8333 30.8735 64.0629 30.8197 64.3632 30.8197C64.7165 30.8197 65.0257 30.8735 65.3083 30.9899V31.2228H65.3172Z" fill="#70C1FF"/>
<path d="M70.025 28.0706C70.3518 28.0706 70.6256 27.9721 70.8376 27.775C71.0495 27.578 71.1909 27.3093 71.235 26.9689L70.6697 26.8615C70.5638 27.2197 70.3429 27.3989 70.025 27.3989C69.707 27.3989 69.4862 27.2197 69.3802 26.8615L68.8061 26.9689C68.8591 27.3093 68.9915 27.578 69.2124 27.775C69.4332 27.9721 69.707 28.0706 70.0338 28.0706H70.025Z" fill="#70C1FF"/>
<path d="M69.0534 31.3574V28.554H68.1348V32.7278H69.0269L70.9877 29.9422V32.7278H71.8975V28.554H71.0054C70.5726 29.1809 69.919 30.1124 69.0534 31.3574Z" fill="#70C1FF"/>
<path d="M73.4167 29.378H74.7415V32.7278H75.6955V29.378H77.0204V28.554H73.4167V29.378Z" fill="#70C1FF"/>
<path d="M80.3679 28.4735C79.7408 28.4735 79.2197 28.6884 78.8046 29.1094C78.3806 29.5304 78.1774 30.0499 78.1774 30.6589C78.1774 31.268 78.3894 31.7785 78.8046 32.1995C79.2197 32.6204 79.7408 32.8354 80.3679 32.8354C80.995 32.8354 81.525 32.6204 81.9401 32.1995C82.3641 31.7785 82.5673 31.259 82.5673 30.6589C82.5673 30.0588 82.3553 29.5304 81.9401 29.1094C81.525 28.6884 81.0039 28.4735 80.3768 28.4735H80.3679ZM81.2689 31.6083C81.0392 31.8681 80.7389 31.9935 80.3679 31.9935C79.997 31.9935 79.7055 31.8591 79.467 31.5994C79.2285 31.3396 79.1049 31.0172 79.1049 30.65C79.1049 30.2827 79.2197 29.9513 79.4493 29.6916C79.679 29.4319 79.9793 29.3065 80.3503 29.3065C80.7212 29.3065 81.0127 29.4408 81.2512 29.7006C81.4897 29.9603 81.6133 30.2827 81.6133 30.65C81.6133 31.0172 81.4985 31.3486 81.2689 31.6083Z" fill="#70C1FF"/>
<path d="M87.0984 30.5601C87.5401 30.363 87.7609 30.0406 87.7609 29.6017C87.7609 29.2792 87.6372 29.0285 87.3899 28.8404C87.1426 28.6523 86.8158 28.5627 86.4006 28.5627H84.2896V32.7365H86.4271C86.8953 32.7365 87.2662 32.638 87.5401 32.432C87.8139 32.235 87.9464 31.9573 87.9464 31.599C87.9464 31.0616 87.6637 30.7213 87.0984 30.5511V30.5601ZM85.2259 29.2882H86.2063C86.4095 29.2882 86.5596 29.333 86.6568 29.4136C86.754 29.5032 86.8069 29.6196 86.8069 29.754C86.8069 29.9062 86.754 30.0316 86.648 30.1301C86.542 30.2287 86.3918 30.2734 86.1975 30.2734H85.2347V29.2882H85.2259ZM86.8069 31.823C86.6833 31.9215 86.5155 31.9663 86.2858 31.9663H85.2171V30.9183H86.2417C86.489 30.9183 86.6745 30.9631 86.7981 31.0527C86.9218 31.1422 86.9924 31.2676 86.9924 31.4289C86.9924 31.5901 86.9306 31.7244 86.8069 31.823Z" fill="#70C1FF"/>
<path d="M90.649 31.653H89.6156V32.7367H90.649V31.653Z" fill="#70C1FF"/>
<path d="M97.8918 30.4976L96.611 28.554H95.6748V32.7278H96.5934V29.9602L97.8829 31.8232L99.1725 29.9512V32.7278H100.126V28.554H99.1902L97.8918 30.4976Z" fill="#70C1FF"/>
<path d="M103.739 28.491C103.2 28.491 102.679 28.6074 102.176 28.8403L102.432 29.6106C102.838 29.4404 103.236 29.3508 103.607 29.3508C103.933 29.3508 104.189 29.4314 104.357 29.5837C104.534 29.736 104.622 29.9599 104.622 30.2465V30.3271C104.26 30.2107 103.88 30.1569 103.483 30.1569C102.988 30.1569 102.582 30.2734 102.273 30.5062C101.964 30.7391 101.814 31.0795 101.814 31.5273C101.814 31.9393 101.955 32.2618 102.237 32.4857C102.52 32.7186 102.865 32.826 103.28 32.826C103.836 32.826 104.278 32.629 104.613 32.2259V32.7365H105.55V30.2644C105.55 29.7001 105.4 29.2613 105.09 28.9567C104.79 28.6522 104.34 28.4999 103.739 28.4999V28.491ZM104.631 31.2228C104.631 31.4825 104.525 31.6885 104.322 31.8587C104.119 32.0199 103.854 32.1005 103.536 32.1005C103.306 32.1005 103.121 32.0468 102.962 31.9304C102.812 31.8229 102.732 31.6706 102.732 31.4825C102.732 31.2676 102.812 31.1063 102.979 30.9899C103.147 30.8735 103.377 30.8197 103.677 30.8197C104.031 30.8197 104.34 30.8735 104.622 30.9899V31.2228H104.631Z" fill="#70C1FF"/>
<path d="M109.789 28.4737C109.224 28.4737 108.756 28.7334 108.394 29.2529V28.5543H107.449V34H108.394V32.0833C108.756 32.5759 109.224 32.8177 109.789 32.8177C110.31 32.8177 110.761 32.6207 111.141 32.2266C111.52 31.8325 111.715 31.304 111.715 30.6502C111.715 29.9963 111.52 29.45 111.141 29.0559C110.761 28.6618 110.31 28.4647 109.789 28.4647V28.4737ZM110.408 31.6175C110.178 31.8683 109.904 31.9937 109.568 31.9937C109.233 31.9937 108.959 31.8683 108.721 31.6175C108.482 31.3667 108.367 31.0443 108.367 30.6591C108.367 30.274 108.482 29.9426 108.721 29.6829C108.959 29.4321 109.242 29.3067 109.568 29.3067C109.895 29.3067 110.178 29.4321 110.399 29.6739C110.628 29.9247 110.743 30.2471 110.743 30.6412C110.743 31.0353 110.628 31.3757 110.408 31.6175Z" fill="#70C1FF"/>
<path d="M117.288 28.554H116.184L114.391 30.5603V28.554H113.455V32.7278H114.391V31.7246L115.062 31.0081L116.308 32.7278H117.421L115.689 30.3095L117.288 28.554Z" fill="#70C1FF"/>
<path d="M120.406 28.4735C119.823 28.4735 119.346 28.6884 118.966 29.1094C118.587 29.5304 118.401 30.0409 118.401 30.65C118.401 31.2949 118.604 31.8144 119.002 32.2264C119.399 32.6384 119.912 32.8354 120.512 32.8354C121.21 32.8354 121.766 32.5757 122.199 32.0562L121.643 31.5546C121.307 31.886 120.936 32.0562 120.53 32.0562C120.221 32.0562 119.956 31.9666 119.744 31.7785C119.532 31.5904 119.399 31.3307 119.346 30.9993H122.376C122.385 30.9366 122.394 30.847 122.394 30.7306C122.394 30.0947 122.217 29.5572 121.872 29.1273C121.528 28.6974 121.042 28.4824 120.415 28.4824L120.406 28.4735ZM119.329 30.3544C119.373 30.032 119.488 29.7633 119.682 29.5573C119.876 29.3512 120.115 29.2527 120.397 29.2527C120.698 29.2527 120.936 29.3512 121.122 29.5573C121.307 29.7633 121.413 30.023 121.44 30.3454H119.329V30.3544Z" fill="#70C1FF"/>
<path d="M123.515 29.378H124.84V32.7278H125.794V29.378H127.119V28.554H123.515V29.378Z" fill="#70C1FF"/>
<path d="M129.565 31.3574V28.554H128.647V32.7278H129.539L131.5 29.9422V32.7278H132.41V28.554H131.517C131.085 29.1809 130.431 30.1124 129.565 31.3574Z" fill="#70C1FF"/>
<path d="M137.126 30.2468H135.315V28.554H134.37V32.7278H135.315V31.0439H137.126V32.7278H138.071V28.554H137.126V30.2468Z" fill="#70C1FF"/>
<path d="M140.041 32.7278H140.977V29.378H142.956V28.554H140.041V32.7278Z" fill="#70C1FF"/>
<path d="M83.7331 11.7152C84.7312 10.4792 85.323 8.90278 85.323 7.18309C85.323 3.22421 82.1521 0.00874681 78.2481 0.00874681H66.324V23.4306H78.2481C82.1521 23.4306 85.323 20.2151 85.323 16.2563C85.323 14.5366 84.7224 12.9602 83.7331 11.7242V11.7152ZM78.2481 18.1461H71.5353V14.3664H78.2481C79.2815 14.3664 80.1117 15.2173 80.1117 16.2563C80.1117 17.2952 79.2815 18.1461 78.2481 18.1461ZM78.2481 9.07296H71.5353V5.29322H78.2481C79.2815 5.29322 80.1117 6.14411 80.1117 7.18309C80.1117 8.22207 79.2815 9.07296 78.2481 9.07296Z" fill="#70C1FF"/>
<path d="M27.5842 0.143448L18.1686 23.5653H24.5988L30.34 8.3926L36.0458 23.5653H42.5731L33.1929 0.143448H27.5842Z" fill="#70C1FF"/>
<path d="M18.1157 9.89698C18.1157 4.43337 13.7524 0.00874681 8.36448 0.00874681H0V5.29322H9.16825C11.2262 5.29322 12.8956 6.98604 12.8956 9.07296H0V14.3574H12.9044C12.9044 16.4444 11.2351 18.1372 9.17708 18.1372H0V23.4216H8.36448C13.7435 23.4216 18.1157 18.997 18.1157 13.5334V9.88802V9.89698Z" fill="#70C1FF"/>
<path d="M63.0737 13.5424V9.89698C63.0737 4.44233 58.7104 0.00874681 53.3225 0.00874681H44.958V5.29322H54.1263C56.1842 5.29322 57.8536 6.98604 57.8536 9.07296H44.9492V14.3574H57.8536C57.8536 16.4444 56.1842 18.1372 54.1263 18.1372H44.958V23.4216H53.3225C58.7015 23.4216 63.0737 18.997 63.0737 13.5334V13.5424Z" fill="#70C1FF"/>
<path d="M107.723 13.5424V9.89698C107.723 4.44233 103.359 0.00874681 97.9714 0.00874681H89.6069V5.29322H103.668V9.07296H94.721V12.1182L89.5981 9.13566V14.3664H103.66V18.1461H94.7121V21.1914L89.5892 18.2088V23.4396H97.9537C103.333 23.4396 107.705 19.0149 107.705 13.5513L107.723 13.5424Z" fill="#70C1FF"/>
</svg>
