<svg width="421" height="78" viewBox="0 0 421 78" fill="none" xmlns="http://www.w3.org/2000/svg">
<path d="M410 5.33325C410 8.27877 412.388 10.6666 415.333 10.6666C418.279 10.6666 420.667 8.27877 420.667 5.33325C420.667 2.38773 418.279 -8.15392e-05 415.333 -8.15392e-05C412.388 -8.15392e-05 410 2.38773 410 5.33325ZM0.000162601 72.3333C0.000162601 75.2788 2.38798 77.6666 5.3335 77.6666C8.27901 77.6666 10.6668 75.2788 10.6668 72.3333C10.6668 69.3877 8.27901 66.9999 5.3335 66.9999C2.38798 66.9999 0.000162601 69.3877 0.000162601 72.3333ZM415.333 5.33325V4.33325H282.57V5.33325V6.33325H415.333V5.33325ZM262.57 25.3333H261.57V52.3333H262.57H263.57V25.3333H262.57ZM242.57 72.3333V71.3333H5.3335V72.3333V73.3333H242.57V72.3333ZM262.57 52.3333H261.57C261.57 62.8267 253.064 71.3333 242.57 71.3333V72.3333V73.3333C254.168 73.3333 263.57 63.9312 263.57 52.3333H262.57ZM282.57 5.33325V4.33325C270.972 4.33325 261.57 13.7353 261.57 25.3333H262.57H263.57C263.57 14.8398 272.077 6.33325 282.57 6.33325V5.33325Z" fill="#9FCDF0"/>
</svg>
