<svg width="338" height="108" viewBox="0 0 338 108" fill="none" xmlns="http://www.w3.org/2000/svg">
<path d="M-8.15392e-05 5.33325C-8.15392e-05 8.27877 2.38773 10.6666 5.33325 10.6666C8.27877 10.6666 10.6666 8.27877 10.6666 5.33325C10.6666 2.38773 8.27877 -8.15392e-05 5.33325 -8.15392e-05C2.38773 -8.15392e-05 -8.15392e-05 2.38773 -8.15392e-05 5.33325ZM326.5 101.833C326.5 104.779 328.888 107.167 331.833 107.167C334.779 107.167 337.167 104.779 337.167 101.833C337.167 98.8877 334.779 96.4999 331.833 96.4999C328.888 96.4999 326.5 98.8877 326.5 101.833ZM5.33325 5.33325V6.33325H169.333V5.33325V4.33325H5.33325V5.33325ZM189.333 25.3333H188.333V81.8333H189.333H190.333V25.3333H189.333ZM209.333 101.833V102.833H331.833V101.833V100.833H209.333V101.833ZM189.333 81.8333H188.333C188.333 93.4312 197.735 102.833 209.333 102.833V101.833V100.833C198.84 100.833 190.333 92.3267 190.333 81.8333H189.333ZM169.333 5.33325V6.33325C179.827 6.33325 188.333 14.8398 188.333 25.3333H189.333H190.333C190.333 13.7353 180.931 4.33325 169.333 4.33325V5.33325Z" fill="#9FCDF0"/>
</svg>
