<svg width="387" height="83" viewBox="0 0 387 83" fill="none" xmlns="http://www.w3.org/2000/svg">
<path d="M-8.15392e-05 5.33325C-8.15392e-05 8.27877 2.38773 10.6666 5.33325 10.6666C8.27877 10.6666 10.6666 8.27877 10.6666 5.33325C10.6666 2.38773 8.27877 -8.15392e-05 5.33325 -8.15392e-05C2.38773 -8.15392e-05 -8.15392e-05 2.38773 -8.15392e-05 5.33325ZM375.5 76.8333C375.5 79.7788 377.888 82.1666 380.833 82.1666C383.779 82.1666 386.167 79.7788 386.167 76.8333C386.167 73.8877 383.779 71.4999 380.833 71.4999C377.888 71.4999 375.5 73.8877 375.5 76.8333ZM5.33325 5.33325V6.33325H128.333V5.33325V4.33325H5.33325V5.33325ZM148.333 25.3333H147.333V56.8333H148.333H149.333V25.3333H148.333ZM168.333 76.8333V77.8333H380.833V76.8333V75.8333H168.333V76.8333ZM148.333 56.8333H147.333C147.333 68.4312 156.735 77.8333 168.333 77.8333V76.8333V75.8333C157.84 75.8333 149.333 67.3267 149.333 56.8333H148.333ZM128.333 5.33325V6.33325C138.827 6.33325 147.333 14.8398 147.333 25.3333H148.333H149.333C149.333 13.7353 139.931 4.33325 128.333 4.33325V5.33325Z" fill="#9FCDF0"/>
</svg>
