<svg width="435" height="111" viewBox="0 0 435 111" fill="none" xmlns="http://www.w3.org/2000/svg">
<path d="M-8.15392e-05 104.833C-8.15392e-05 107.779 2.38773 110.167 5.33325 110.167C8.27877 110.167 10.6666 107.779 10.6666 104.833C10.6666 101.888 8.27877 99.4999 5.33325 99.4999C2.38773 99.4999 -8.15392e-05 101.888 -8.15392e-05 104.833ZM424 5.33325C424 8.27877 426.388 10.6666 429.333 10.6666C432.279 10.6666 434.667 8.27877 434.667 5.33325C434.667 2.38773 432.279 -8.15392e-05 429.333 -8.15392e-05C426.388 -8.15392e-05 424 2.38773 424 5.33325ZM5.33325 104.833V105.833H87.3333V104.833V103.833H5.33325V104.833ZM107.333 84.8333H108.333V25.3333H107.333H106.333V84.8333H107.333ZM127.333 5.33325V6.33325H429.333V5.33325V4.33325H127.333V5.33325ZM107.333 25.3333H108.333C108.333 14.8398 116.84 6.33325 127.333 6.33325V5.33325V4.33325C115.735 4.33325 106.333 13.7353 106.333 25.3333H107.333ZM87.3333 104.833V105.833C98.9312 105.833 108.333 96.4312 108.333 84.8333H107.333H106.333C106.333 95.3267 97.8267 103.833 87.3333 103.833V104.833Z" fill="#9FCDF0"/>
</svg>
