<svg width="199" height="108" viewBox="0 0 199 108" fill="none" xmlns="http://www.w3.org/2000/svg">
<path d="M188 5.33325C188 8.27877 190.388 10.6666 193.333 10.6666C196.279 10.6666 198.667 8.27877 198.667 5.33325C198.667 2.38773 196.279 -8.15392e-05 193.333 -8.15392e-05C190.388 -8.15392e-05 188 2.38773 188 5.33325ZM0.000162601 101.833C0.000162601 104.779 2.38798 107.167 5.3335 107.167C8.27901 107.167 10.6668 104.779 10.6668 101.833C10.6668 98.8877 8.27901 96.4999 5.3335 96.4999C2.38798 96.4999 0.000162601 98.8877 0.000162601 101.833ZM193.333 5.33325V4.33325H25.3335V5.33325V6.33325H193.333V5.33325ZM5.3335 25.3333H4.3335V101.833H5.3335H6.3335V25.3333H5.3335ZM25.3335 5.33325V4.33325C13.7355 4.33325 4.3335 13.7353 4.3335 25.3333H5.3335H6.3335C6.3335 14.8398 14.8401 6.33325 25.3335 6.33325V5.33325Z" fill="#9FCDF0"/>
</svg>
