<svg width="346" height="44" viewBox="0 0 346 44" fill="none" xmlns="http://www.w3.org/2000/svg">
<path d="M335 38.3333C335 41.2788 337.388 43.6666 340.333 43.6666C343.279 43.6666 345.667 41.2788 345.667 38.3333C345.667 35.3877 343.279 32.9999 340.333 32.9999C337.388 32.9999 335 35.3877 335 38.3333ZM0.000162601 5.33325C0.000162601 8.27877 2.38798 10.6666 5.3335 10.6666C8.27901 10.6666 10.6668 8.27877 10.6668 5.33325C10.6668 2.38773 8.27901 -8.15392e-05 5.3335 -8.15392e-05C2.38798 -8.15392e-05 0.000162601 2.38773 0.000162601 5.33325ZM340.333 38.3333H341.333V25.3333H340.333H339.333V38.3333H340.333ZM320.333 5.33325V4.33325H5.3335V5.33325V6.33325H320.333V5.33325ZM340.333 25.3333H341.333C341.333 13.7353 331.931 4.33325 320.333 4.33325V5.33325V6.33325C330.827 6.33325 339.333 14.8398 339.333 25.3333H340.333Z" fill="#9FCDF0"/>
</svg>
