<svg width="48" height="54" viewBox="0 0 48 54" fill="none" xmlns="http://www.w3.org/2000/svg">
<g filter="url(#filter0_di_3202_327)">
<path fill-rule="evenodd" clip-rule="evenodd" d="M24 12C29.5228 12 34 16.2886 34 21.5789C34 26.8693 24 38 24 38C24 38 14 26.8693 14 21.5789C14 16.2886 18.4772 12 24 12ZM24 16.7895C21.2386 16.7895 19 18.9338 19 21.5789C19 24.2241 21.2386 26.3684 24 26.3684C26.7614 26.3684 29 24.2241 29 21.5789C29 18.9338 26.7614 16.7895 24 16.7895Z" fill="url(#paint0_linear_3202_327)"/>
<path d="M24 12.25C29.395 12.25 33.75 16.4369 33.75 21.5791C33.75 22.8374 33.1501 24.4794 32.2158 26.2607C31.2862 28.0331 30.0442 29.9099 28.7979 31.627C27.5521 33.3431 26.3053 34.8952 25.3701 36.0186C24.9028 36.58 24.5136 37.0342 24.2412 37.3477C24.1463 37.4569 24.0648 37.5484 24 37.6221C23.9352 37.5484 23.8537 37.4569 23.7588 37.3477C23.4864 37.0342 23.0972 36.58 22.6299 36.0186C21.6947 34.8952 20.4479 33.3431 19.2021 31.627C17.9558 29.9099 16.7138 28.0331 15.7842 26.2607C14.8499 24.4794 14.25 22.8374 14.25 21.5791C14.25 16.4369 18.605 12.25 24 12.25ZM24 16.5391C21.1107 16.5391 18.75 18.7859 18.75 21.5791C18.7501 24.3723 21.1108 26.6182 24 26.6182C26.8892 26.6182 29.2499 24.3723 29.25 21.5791C29.25 18.7859 26.8893 16.5391 24 16.5391Z" stroke="url(#paint1_linear_3202_327)" stroke-width="0.5"/>
</g>
<defs>
<filter id="filter0_di_3202_327" x="0" y="0" width="48" height="54" filterUnits="userSpaceOnUse" color-interpolation-filters="sRGB">
<feFlood flood-opacity="0" result="BackgroundImageFix"/>
<feColorMatrix in="SourceAlpha" type="matrix" values="0 0 0 0 0 0 0 0 0 0 0 0 0 0 0 0 0 0 127 0" result="hardAlpha"/>
<feOffset dy="2"/>
<feGaussianBlur stdDeviation="7"/>
<feComposite in2="hardAlpha" operator="out"/>
<feColorMatrix type="matrix" values="0 0 0 0 0.109804 0 0 0 0 0.360784 0 0 0 0 0.709804 0 0 0 0.5 0"/>
<feBlend mode="normal" in2="BackgroundImageFix" result="effect1_dropShadow_3202_327"/>
<feBlend mode="normal" in="SourceGraphic" in2="effect1_dropShadow_3202_327" result="shape"/>
<feColorMatrix in="SourceAlpha" type="matrix" values="0 0 0 0 0 0 0 0 0 0 0 0 0 0 0 0 0 0 127 0" result="hardAlpha"/>
<feOffset/>
<feGaussianBlur stdDeviation="7"/>
<feComposite in2="hardAlpha" operator="arithmetic" k2="-1" k3="1"/>
<feColorMatrix type="matrix" values="0 0 0 0 0.567308 0 0 0 0 0.815574 0 0 0 0 1 0 0 0 1 0"/>
<feBlend mode="normal" in2="shape" result="effect2_innerShadow_3202_327"/>
</filter>
<linearGradient id="paint0_linear_3202_327" x1="22.6364" y1="1.38333" x2="47.3243" y2="23.0665" gradientUnits="userSpaceOnUse">
<stop stop-color="#007FBF"/>
<stop offset="0.495192" stop-color="#006496"/>
<stop offset="1" stop-color="#0076B1"/>
</linearGradient>
<linearGradient id="paint1_linear_3202_327" x1="22.6364" y1="38" x2="22.6364" y2="11.35" gradientUnits="userSpaceOnUse">
<stop stop-color="#C2E5FF"/>
<stop offset="0.5" stop-color="white"/>
<stop offset="1" stop-color="#1C5CB5"/>
</linearGradient>
</defs>
</svg>
