<svg width="122" height="56" viewBox="0 0 122 56" fill="none" xmlns="http://www.w3.org/2000/svg">
<path d="M82.4871 9.59767L83.4192 6.38961C83.5119 6.20298 83.8388 5.88935 84.0177 5.7734C84.8095 5.25989 85.8167 4.97055 86.678 4.56858C89.6608 3.17382 92.6988 1.68519 95.7313 0.369946C95.8947 0.29927 96.036 0.118161 96.2006 0.0662575C96.6246 -0.0684699 97.232 0.0463797 97.6837 0.0320235L97.8151 0.121474C98.0857 1.16064 97.6009 2.04299 97.3623 2.99492C96.9449 4.65913 96.5462 6.32224 96.1796 7.9964C96.11 8.31555 95.8086 8.82353 95.8892 9.10845C96.2194 9.61092 96.8996 9.70258 97.4717 9.74123C100.905 9.97314 104.899 9.79313 108.404 9.85166C110.166 9.88037 111.929 9.80197 113.69 9.86712C114.199 10.014 113.953 11.1216 113.847 11.5291C113.683 12.1575 113.503 12.8101 113.329 13.4407C113.154 14.0713 112.823 14.8708 112.14 15.0133C101.401 15.0243 90.6547 15.0773 79.9129 15.042C73.0529 15.0199 66.142 14.8222 59.2621 14.9216C58.4869 15.0144 57.6951 15.0376 57.3097 15.8404C57.207 16.0546 56.7133 17.8227 56.6824 18.0844C56.5256 19.4195 56.9872 19.8104 58.2682 19.901L73.7376 19.8922C74.5515 20.1174 75.1224 20.4532 75.1224 21.3874C75.1224 22.2665 74.7016 23.2703 74.504 24.0886C73.8414 26.8328 73.1258 29.5362 72.4058 32.2606C72.3053 32.6427 72.3064 33.154 72.1948 33.4853C72.1761 33.5405 71.752 34.2307 71.6935 34.3091C71.3324 34.7862 70.3594 35.3151 69.7642 35.3615L36.6831 35.3041C36.004 34.6062 36.6677 33.5361 36.8786 32.7343C36.9471 32.4748 36.9382 32.1777 37.0233 31.8851C37.169 31.3804 37.3844 30.7156 37.6339 30.2871L37.8681 30.19L58.8281 30.1679C59.2809 30.1237 59.5448 29.9658 59.8143 29.608C60.2913 28.9752 60.1986 28.7278 60.3675 28.063C60.5696 27.2646 61.1913 26.1923 60.3753 25.5275C59.8673 25.1145 59.0368 25.0096 58.3908 24.972C53.4887 24.6805 48.2962 25.1973 43.3632 24.9809C42.8287 24.9908 42.2589 24.1626 42.2114 23.6966C42.1606 23.2018 42.4764 22.717 42.599 22.2223C43.4007 18.9656 44.2356 15.7388 45.1389 12.5042C45.235 12.1586 45.2041 11.7445 45.3521 11.3922C45.3896 11.3016 45.7938 10.617 45.8435 10.5584C46.0312 10.3331 47.0936 9.8108 47.447 9.84282L81.47 9.85166L82.4893 9.60098L82.4871 9.59767Z" fill="white"/>
<path d="M10.4831 9.87264L40.0027 9.89252C40.9911 10.2603 41.1335 10.9858 40.9646 11.972C40.9105 12.2911 40.6819 12.608 40.5968 12.9294C38.8675 19.5244 37.3667 26.2056 35.4341 32.7244C35.2044 33.4996 35.2928 33.938 34.6324 34.573C34.3453 34.848 33.2597 35.3008 32.8611 35.3416L15.7761 35.3737C14.7336 35.9755 15.0539 38.2327 14.1958 38.8733C14.0456 38.9848 13.4879 39.3161 13.3024 39.4155C12.8287 39.6673 12.0766 39.8859 11.5841 40.1267C8.30976 41.7268 4.98686 43.3822 1.64407 44.8741C1.49499 44.9404 1.40443 45.1204 1.26971 45.1624C0.295692 45.4639 -0.148245 44.8631 0.0439068 43.9355C0.164278 43.3513 0.439254 42.4778 0.60159 41.8439C2.89195 32.9309 5.28392 23.9848 7.60962 15.0596C7.88349 14.0105 8.07675 12.8631 8.35173 11.8262C8.38596 11.6992 8.94033 10.6932 9.01653 10.6136C9.29261 10.3254 10.0844 9.92896 10.4842 9.87264H10.4831ZM20.9587 15.159C20.3645 15.8647 20.3358 16.7636 20.1106 17.6239C19.512 19.912 18.8373 22.198 18.2465 24.4839C17.9903 25.4734 17.2194 28.2475 17.1609 28.5887C17.0383 29.2988 17.077 29.8863 17.8787 30.0287C18.4706 30.1336 21.3529 30.0541 21.9393 30.0541C22.3435 30.0541 22.6483 29.6654 22.7145 29.6146C23.5803 28.9399 25.6531 20.2798 26.3842 17.2716C26.5984 16.3904 26.6238 15.6946 25.7846 15.1668L20.9598 15.1601L20.9587 15.159Z" fill="white"/>
<path d="M96.0648 29.9106C96.1277 29.8543 96.1487 29.7239 96.2724 29.6235C96.3618 29.5506 96.5407 29.555 96.6225 29.4766C96.6622 29.4379 97.1161 28.5986 97.1481 28.5114C97.422 27.7682 97.4882 26.5711 97.8361 25.776C98.0559 25.2746 98.7935 24.8196 99.349 24.8594C102.776 25.0538 106.454 24.6165 109.85 24.8594C110.555 24.9102 111.171 25.0394 111.111 25.8997C111.057 26.6716 110.706 27.4557 110.503 28.1724C110.214 29.1906 110.036 30.3733 109.758 31.4036C109.551 32.1766 109.297 33.1473 108.97 33.8177C108.551 34.6724 108.258 34.8889 107.394 35.3339L77.2129 35.3008C76.7513 34.8425 76.4001 34.8193 76.3283 34.0882C76.2886 33.6885 76.3703 32.847 76.463 32.4527C76.5227 32.1998 76.7491 31.9138 76.8319 31.6068C77.0682 30.7366 77.2339 29.6974 77.4613 28.8129C78.3569 25.3276 79.225 21.8612 80.2012 18.4113C80.284 18.1208 80.7069 16.704 80.8063 16.5869C80.9366 16.4323 81.3607 16.1452 81.5694 16.1353C85.1651 16.3561 89.0656 15.8636 92.6237 16.1364C93.8075 16.2269 93.7877 16.9006 93.6397 17.9353C93.5834 18.3318 93.3691 18.6498 93.2775 19.0087C92.5972 21.6933 91.854 24.389 91.1792 27.0703C90.9065 28.1525 90.4923 29.6091 91.8485 30.053C93.0577 29.9735 94.4127 30.1701 95.6032 30.0574C95.7611 30.042 95.9444 30.0232 96.067 29.9128L96.0648 29.9106Z" fill="white"/>
<g filter="url(#filter0_di_3202_316)">
<path d="M17.6545 37.3636L107.469 37.3968C108.15 37.7325 108.105 39.4144 107.229 39.5855L17.6556 39.6374C16.7898 39.4475 16.7147 37.5668 17.6556 37.3625L17.6545 37.3636Z" fill="url(#paint0_linear_3202_316)"/>
<path d="M107.397 37.6457C107.476 37.6999 107.552 37.797 107.608 37.9446C107.671 38.1137 107.699 38.3236 107.684 38.5344C107.651 38.9745 107.455 39.2746 107.197 39.3352L17.6946 39.387C17.5742 39.3553 17.464 39.2665 17.3772 39.1096C17.2863 38.9454 17.2319 38.7277 17.2278 38.5012C17.2237 38.2744 17.2695 38.0581 17.3567 37.8957C17.4379 37.7446 17.5493 37.6502 17.6877 37.6135L107.397 37.6457Z" stroke="url(#paint1_linear_3202_316)" stroke-width="0.5"/>
</g>
<defs>
<filter id="filter0_di_3202_316" x="2.97778" y="25.3625" width="118.96" height="30.2749" filterUnits="userSpaceOnUse" color-interpolation-filters="sRGB">
<feFlood flood-opacity="0" result="BackgroundImageFix"/>
<feColorMatrix in="SourceAlpha" type="matrix" values="0 0 0 0 0 0 0 0 0 0 0 0 0 0 0 0 0 0 127 0" result="hardAlpha"/>
<feOffset dy="2"/>
<feGaussianBlur stdDeviation="7"/>
<feComposite in2="hardAlpha" operator="out"/>
<feColorMatrix type="matrix" values="0 0 0 0 0.109804 0 0 0 0 0.360784 0 0 0 0 0.709804 0 0 0 0.5 0"/>
<feBlend mode="normal" in2="BackgroundImageFix" result="effect1_dropShadow_3202_316"/>
<feBlend mode="normal" in="SourceGraphic" in2="effect1_dropShadow_3202_316" result="shape"/>
<feColorMatrix in="SourceAlpha" type="matrix" values="0 0 0 0 0 0 0 0 0 0 0 0 0 0 0 0 0 0 127 0" result="hardAlpha"/>
<feOffset/>
<feGaussianBlur stdDeviation="7"/>
<feComposite in2="hardAlpha" operator="arithmetic" k2="-1" k3="1"/>
<feColorMatrix type="matrix" values="0 0 0 0 0.567308 0 0 0 0 0.815574 0 0 0 0 1 0 0 0 1 0"/>
<feBlend mode="normal" in2="shape" result="effect2_innerShadow_3202_316"/>
</filter>
<linearGradient id="paint0_linear_3202_316" x1="56.2561" y1="36.4336" x2="56.3515" y2="40.7882" gradientUnits="userSpaceOnUse">
<stop stop-color="#007FBF"/>
<stop offset="0.495192" stop-color="#006496"/>
<stop offset="1" stop-color="#0076B1"/>
</linearGradient>
<linearGradient id="paint1_linear_3202_316" x1="56.2561" y1="39.6374" x2="56.2561" y2="37.3057" gradientUnits="userSpaceOnUse">
<stop stop-color="#C2E5FF"/>
<stop offset="0.5" stop-color="white"/>
<stop offset="1" stop-color="#1C5CB5"/>
</linearGradient>
</defs>
</svg>
