<svg width="46" height="26" viewBox="0 0 46 26" fill="none" xmlns="http://www.w3.org/2000/svg">
<path fill-rule="evenodd" clip-rule="evenodd" d="M44.9449 1.76057C45.2631 0.746571 44.9449 0 43.4212 0H38.39C37.1097 0 36.5194 0.644429 36.1993 1.35571C36.1993 1.35571 33.6406 7.29114 30.0163 11.1466C28.8433 12.2646 28.3105 12.6193 27.6703 12.6193C27.3503 12.6193 26.8692 12.2646 26.8692 11.2487V1.76057C26.8692 0.542286 26.5165 0 25.4509 0H17.539C16.7398 0 16.2587 0.564571 16.2587 1.10129C16.2587 2.25457 18.0719 2.522 18.2578 5.76829V12.8217C18.2578 14.3687 17.9645 14.6491 17.3244 14.6491C15.6186 14.6491 11.4691 8.68586 9.00623 1.86271C8.52899 0.534857 8.046 0 6.75994 0H1.72496C0.287494 0 0 0.644429 0 1.35571C0 2.62229 1.7058 8.91429 7.94442 17.2361C12.1035 22.919 17.9588 26 23.2928 26C26.4916 26 26.8864 25.3166 26.8864 24.1373V19.8417C26.8864 18.473 27.1893 18.2 28.2032 18.2C28.9506 18.2 30.229 18.5566 33.2151 21.2959C36.6267 24.544 37.1883 26 39.1088 26H44.1399C45.5774 26 46.298 25.3166 45.884 23.9646C45.4279 22.62 43.7987 20.6681 41.6387 18.3523C40.4657 17.0337 38.7063 15.613 38.1715 14.9017C37.426 13.9899 37.6387 13.5831 38.1715 12.7716C38.1715 12.7716 44.3047 4.55186 44.943 1.76057" fill="#70C1FF"/>
</svg>
