<svg width="38" height="33" viewBox="0 0 38 33" fill="none" xmlns="http://www.w3.org/2000/svg">
<path fill-rule="evenodd" clip-rule="evenodd" d="M33.9489 0.221337C34.4145 0.025355 34.9242 -0.042238 35.4248 0.0255929C35.9255 0.0934238 36.3988 0.2942 36.7955 0.607022C37.1922 0.919845 37.4978 1.33328 37.6805 1.80429C37.8632 2.2753 37.9163 2.78668 37.8343 3.28518L33.5607 29.2073C33.1462 31.7077 30.4027 33.1416 28.1095 31.8961C26.1913 30.8541 23.3423 29.2487 20.7797 27.5736C19.4983 26.7351 15.5734 24.05 16.0558 22.1393C16.4703 20.5056 23.0653 14.3666 26.8339 10.7168C28.313 9.28285 27.6384 8.45565 25.8917 9.77465C21.5541 13.0495 14.5898 18.0297 12.2872 19.4316C10.2559 20.6677 9.19697 20.8787 7.93073 20.6677C5.6206 20.2833 3.47817 19.6879 1.72956 18.9624C-0.63333 17.9826 -0.518389 14.7341 1.72768 13.7882L33.9489 0.221337Z" fill="#70C1FF"/>
</svg>
