<svg width="35" height="35" viewBox="0 0 35 35" fill="none" xmlns="http://www.w3.org/2000/svg">
<path d="M16.8928 0.024693C6.46692 0.571348 -0.415347 8.77619 0.0194803 19.1225C0.209405 23.6512 2.02368 27.548 2.45351 31.8461C2.56347 32.9594 2.2436 34.3336 3.52309 34.8201C5.09746 35.4169 7.51151 34.4138 8.83098 33.4961C9.2808 33.1901 9.71063 32.834 10.0405 32.3927C11.405 33.3005 12.6994 34.1781 14.3238 34.5693C21.476 36.2895 29.3129 32.3526 32.7965 26.0284C39.3439 14.1475 30.4924 -0.687464 16.8928 0.024693ZM12.8444 24.8198C12.2796 25.2611 11.7348 25.8629 11.1101 26.209C10.2054 26.6955 9.92555 26.1889 9.58568 25.3865C8.51611 22.8338 8.38616 18.4856 9.01091 15.8125C9.85058 12.1765 12.6545 8.9768 16.5079 8.63577C20.4064 8.28972 24.025 10.2757 25.6593 13.8616C29.2779 21.8408 20.0165 29.7196 12.8444 24.8248V24.8198Z" fill="#70C1FF"/>
</svg>
