<svg width="1920" height="190" viewBox="0 0 1920 190" fill="none" xmlns="http://www.w3.org/2000/svg">
<path d="M1514.38 128.14H1583.28V2.65308H1618.83V128.14H1640.91V190H1608.01V157.303H1478.83V2.65308H1514.38V128.14Z" fill="url(#paint0_linear_3202_51)"/>
<path fill-rule="evenodd" clip-rule="evenodd" d="M185.98 0C198.198 0.000122794 209.387 1.99034 219.544 5.96689C229.85 9.94363 238.757 15.5414 246.265 22.7585C253.92 29.9751 259.882 38.4431 264.151 48.1633C268.42 57.7365 270.557 68.3415 270.557 79.9766C270.557 91.4649 268.421 102.144 264.151 112.012C259.882 121.733 253.921 130.204 246.265 137.421C238.757 144.49 229.85 150.013 219.544 153.99C209.386 157.966 198.271 159.953 186.199 159.953C173.98 159.953 162.645 157.966 152.193 153.99C141.887 150.013 132.905 144.415 125.249 137.198C117.742 129.981 111.852 121.514 107.582 111.793C103.46 102.072 101.399 91.4649 101.399 79.9766C101.399 68.4887 103.46 57.8838 107.582 48.1633C111.852 38.4426 117.816 29.9754 125.472 22.7585C133.127 15.5416 142.107 9.94362 152.412 5.96689C162.717 1.99016 173.908 0 185.98 0ZM185.98 30.4885C179.06 30.4885 172.655 31.6682 166.766 34.0248C161.025 36.3813 155.945 39.7702 151.529 44.1887C147.113 48.6071 143.653 53.8362 141.15 59.8746C138.795 65.9127 137.616 72.6132 137.616 79.9766C137.616 87.1935 138.795 93.896 141.15 100.082C143.653 106.121 147.04 111.349 151.31 115.768C155.726 120.186 160.878 123.575 166.766 125.932C172.655 128.288 179.06 129.465 185.98 129.465C192.899 129.465 199.23 128.288 204.971 125.932C210.859 123.575 216.011 120.186 220.427 115.768C224.844 111.349 228.231 106.121 230.587 100.082C233.089 94.0434 234.34 87.3407 234.34 79.9766C234.34 72.6132 233.089 65.9126 230.587 59.8746C228.231 53.8359 224.844 48.6073 220.427 44.1887C216.158 39.7701 211.079 36.3814 205.19 34.0248C199.302 31.6685 192.898 30.4886 185.98 30.4885Z" fill="url(#paint1_linear_3202_51)"/>
<path d="M826.68 157.303H791.346V31.8167H738.288L737.244 64.0716C736.802 79.2418 735.773 92.7188 734.154 104.502C732.534 116.284 730.029 126.3 726.643 134.548C723.257 142.795 718.621 149.054 712.733 153.326C706.844 157.597 699.407 159.734 690.427 159.734C687.777 159.734 684.98 159.512 682.036 159.07C679.24 158.628 676.148 158.04 672.763 157.303L674.97 127.037C677.031 127.626 679.165 127.921 681.372 127.921C687.408 127.921 692.122 125.489 695.508 120.629C698.894 115.621 701.321 108.477 702.793 99.1987C704.265 89.9197 705.222 78.6522 705.664 65.3965L707.874 2.65308H826.68V157.303Z" fill="url(#paint2_linear_3202_51)"/>
<path d="M-9.44729 65.174H16.2695L56.8025 2.65308H94.5623L44.0452 77.3437L96.109 157.303H55.4749L15.1946 95.0017H-9.44729V157.303H-45V2.65308H-9.44729V65.174Z" fill="url(#paint3_linear_3202_51)"/>
<path d="M385.605 98.6796L442.538 2.65308H472.13L472.352 157.303H438.784L438.586 64.8031L393.072 140.953H377.174L331.681 66.428V157.303H298.117V2.65308H327.705L385.605 98.6796Z" fill="url(#paint4_linear_3202_51)"/>
<path d="M651.642 157.303H616.086V31.8167H546.305V157.303H510.752V2.65308H651.642V157.303Z" fill="url(#paint5_linear_3202_51)"/>
<path d="M982.106 31.3717H900.841V64.9548H972.611V92.7902H900.841V128.581H984.977V157.303H865.289V2.65308H982.106V31.3717Z" fill="url(#paint6_linear_3202_51)"/>
<path d="M1048.99 65.174H1074.7L1115.24 2.65308H1153L1102.48 77.3437L1154.54 157.303H1113.91L1073.63 95.0017H1048.99V157.303H1013.43V2.65308H1048.99V65.174Z" fill="url(#paint7_linear_3202_51)"/>
<path d="M1287.72 31.8167H1238.25V157.303H1202.92V31.8167H1153.68V2.65308H1287.72V31.8167Z" fill="url(#paint8_linear_3202_51)"/>
<path fill-rule="evenodd" clip-rule="evenodd" d="M1458.33 157.303H1420.79L1407.06 124.165H1335.41L1321.63 157.303H1284.97L1353.87 2.65308H1389.21L1458.33 157.303ZM1346.7 96.9906H1395.81L1371.3 37.8004L1346.7 96.9906Z" fill="url(#paint9_linear_3202_51)"/>
<path d="M1700.06 103.396L1773.82 2.65308H1807.38V157.303H1772.05V56.7799L1698.29 157.303H1664.51V2.65308H1700.06V103.396Z" fill="url(#paint10_linear_3202_51)"/>
<path fill-rule="evenodd" clip-rule="evenodd" d="M1965 157.303H1929.67V116.209H1896.93L1869.6 157.303H1831.84L1864.11 110.718C1863.21 110.355 1862.31 109.981 1861.43 109.582C1851.72 105.163 1844.28 98.7576 1839.13 90.363C1833.98 81.968 1831.4 71.9513 1831.4 60.3162C1831.4 48.239 1834.12 37.9286 1839.57 29.3861C1845.16 20.6962 1852.97 14.0657 1862.98 9.49983C1872.99 4.93454 1884.77 2.65322 1898.31 2.65308H1965V157.303ZM1899.19 31.8167C1889.04 31.8167 1881.23 34.1728 1875.79 38.8859C1870.49 43.5991 1867.83 50.5955 1867.83 59.8746C1867.83 68.8582 1870.41 75.7805 1875.56 80.6407C1880.72 85.5009 1888.3 87.9322 1898.31 87.9324H1929.67V31.8167H1899.19Z" fill="url(#paint11_linear_3202_51)"/>
<defs>
<linearGradient id="paint0_linear_3202_51" x1="822.955" y1="-77.5833" x2="822.955" y2="190" gradientUnits="userSpaceOnUse">
<stop stop-color="#245475"/>
<stop offset="1" stop-color="#161D27"/>
</linearGradient>
<linearGradient id="paint1_linear_3202_51" x1="822.955" y1="-77.5833" x2="822.955" y2="190" gradientUnits="userSpaceOnUse">
<stop stop-color="#245475"/>
<stop offset="1" stop-color="#161D27"/>
</linearGradient>
<linearGradient id="paint2_linear_3202_51" x1="822.955" y1="-77.5833" x2="822.955" y2="190" gradientUnits="userSpaceOnUse">
<stop stop-color="#245475"/>
<stop offset="1" stop-color="#161D27"/>
</linearGradient>
<linearGradient id="paint3_linear_3202_51" x1="822.955" y1="-77.5833" x2="822.955" y2="190" gradientUnits="userSpaceOnUse">
<stop stop-color="#245475"/>
<stop offset="1" stop-color="#161D27"/>
</linearGradient>
<linearGradient id="paint4_linear_3202_51" x1="822.955" y1="-77.5833" x2="822.955" y2="190" gradientUnits="userSpaceOnUse">
<stop stop-color="#245475"/>
<stop offset="1" stop-color="#161D27"/>
</linearGradient>
<linearGradient id="paint5_linear_3202_51" x1="822.955" y1="-77.5833" x2="822.955" y2="190" gradientUnits="userSpaceOnUse">
<stop stop-color="#245475"/>
<stop offset="1" stop-color="#161D27"/>
</linearGradient>
<linearGradient id="paint6_linear_3202_51" x1="822.955" y1="-77.5833" x2="822.955" y2="190" gradientUnits="userSpaceOnUse">
<stop stop-color="#245475"/>
<stop offset="1" stop-color="#161D27"/>
</linearGradient>
<linearGradient id="paint7_linear_3202_51" x1="822.955" y1="-77.5833" x2="822.955" y2="190" gradientUnits="userSpaceOnUse">
<stop stop-color="#245475"/>
<stop offset="1" stop-color="#161D27"/>
</linearGradient>
<linearGradient id="paint8_linear_3202_51" x1="822.955" y1="-77.5833" x2="822.955" y2="190" gradientUnits="userSpaceOnUse">
<stop stop-color="#245475"/>
<stop offset="1" stop-color="#161D27"/>
</linearGradient>
<linearGradient id="paint9_linear_3202_51" x1="822.955" y1="-77.5833" x2="822.955" y2="190" gradientUnits="userSpaceOnUse">
<stop stop-color="#245475"/>
<stop offset="1" stop-color="#161D27"/>
</linearGradient>
<linearGradient id="paint10_linear_3202_51" x1="822.955" y1="-77.5833" x2="822.955" y2="190" gradientUnits="userSpaceOnUse">
<stop stop-color="#245475"/>
<stop offset="1" stop-color="#161D27"/>
</linearGradient>
<linearGradient id="paint11_linear_3202_51" x1="822.955" y1="-77.5833" x2="822.955" y2="190" gradientUnits="userSpaceOnUse">
<stop stop-color="#245475"/>
<stop offset="1" stop-color="#161D27"/>
</linearGradient>
</defs>
</svg>
