<svg width="1865" height="173" viewBox="0 0 1865 173" fill="none" xmlns="http://www.w3.org/2000/svg">
<path d="M971.649 116.609H1016.08V2.41211H1048.45V116.609H1092.68V2.41211H1125.05V116.609H1144.15V172.3H1113.99V143.147H939.28V2.41211H971.649V116.609ZM853.179 78.0586L891.836 2.41211H923.803L863.89 113.794C858.528 123.846 852.162 131.554 844.79 136.915C837.552 142.276 829.577 145.292 820.865 145.962C812.153 146.766 803.105 145.225 793.723 141.338L801.564 116.609C809.338 118.888 815.839 119.557 821.066 118.619C826.428 117.547 831.186 113.794 835.341 107.36L836.46 105.68L781.057 2.41211H815.839L853.179 78.0586ZM1368.47 0C1380.67 3.8822e-05 1391.66 2.14459 1401.44 6.43359C1411.36 10.5886 1419.67 16.7536 1426.37 24.9297L1405.46 44.2305C1400.64 38.7352 1395.28 34.6475 1389.38 31.9668C1383.48 29.1521 1377.05 27.7452 1370.08 27.7451C1363.51 27.7451 1357.48 28.8174 1351.98 30.9619C1346.49 33.1064 1341.73 36.189 1337.71 40.21C1333.69 44.2309 1330.54 48.989 1328.26 54.4844C1326.11 59.9797 1325.04 66.0786 1325.04 72.7803C1325.04 79.4818 1326.11 85.58 1328.26 91.0752C1330.54 96.5705 1333.69 101.329 1337.71 105.35C1341.73 109.371 1346.49 112.454 1351.98 114.599C1357.48 116.743 1363.51 117.815 1370.08 117.815C1377.05 117.815 1383.48 116.475 1389.38 113.794C1395.28 110.979 1400.64 106.757 1405.46 101.128L1426.37 120.429C1419.67 128.605 1411.36 134.837 1401.44 139.126C1391.66 143.415 1380.6 145.56 1368.27 145.56C1357.41 145.56 1347.29 143.818 1337.91 140.333C1328.66 136.714 1320.62 131.62 1313.78 125.053C1306.95 118.485 1301.59 110.778 1297.7 101.932C1293.95 93.0856 1292.07 83.3687 1292.07 72.7803C1292.07 62.1917 1293.95 52.4741 1297.7 43.6279C1301.59 34.7817 1306.95 27.0745 1313.78 20.5068C1320.75 13.9393 1328.86 8.91256 1338.11 5.42773C1347.36 1.80898 1357.48 0 1368.47 0ZM128.27 143.147H95.9004V28.9512H32.3691V143.147H0V2.41211H128.27V143.147ZM224.075 2.41211C236.674 2.41216 247.53 4.49056 256.645 8.64551C265.759 12.6665 272.796 18.4968 277.755 26.1367C282.714 33.7766 285.194 42.8909 285.194 53.4795C285.194 63.934 282.714 72.9812 277.755 80.6211C272.796 88.2609 265.759 94.1585 256.645 98.3135C247.53 102.334 236.674 104.345 224.075 104.345H195.727V143.147H163.156V2.41211H224.075ZM413.035 28.5488H339.049V59.1084H404.39V84.4414H339.049V117.011H415.648V143.147H306.68V2.41211H413.035V28.5488ZM474.325 94.0918L541.477 2.41211H572.036V143.147H539.867V51.6699L472.717 143.147H441.956V2.41211H474.325V94.0918ZM686.731 89.7988L738.563 2.41211H765.504L765.705 143.147H735.146L734.965 58.9717L693.528 128.27H679.053L637.636 60.4482V143.147H607.076V2.41211H634.018L686.731 89.7988ZM1272.8 28.5488H1198.81V59.1084H1264.15V84.4414H1198.81V117.011H1275.41V143.147H1166.44V2.41211H1272.8V28.5488ZM1552.61 28.9512H1507.57V143.147H1475.41V28.9512H1430.57V2.41211H1552.61V28.9512ZM1638.6 2.41211C1654.95 2.41217 1667.69 5.5628 1676.8 11.8623C1685.91 18.1619 1690.47 27.142 1690.47 38.8027C1690.47 50.3296 1686.18 59.3096 1677.6 65.7432C1675.5 67.2877 1673.23 68.6408 1670.79 69.8066C1675.86 71.3517 1680.28 73.4818 1684.04 76.1982C1692.75 82.4978 1697.11 91.6121 1697.11 103.541C1697.11 115.872 1692.42 125.59 1683.03 132.693C1673.78 139.663 1660.25 143.147 1642.42 143.147H1573.06V2.41211H1638.6ZM1864.81 143.147H1830.63L1818.13 112.99H1752.9L1740.36 143.147H1706.98L1769.71 2.41211H1801.88L1864.81 143.147ZM1605.43 119.021H1641.21C1648.72 119.021 1654.42 117.547 1658.3 114.599C1662.19 111.65 1664.13 107.092 1664.13 100.927C1664.13 95.0294 1662.19 90.673 1658.3 87.8584C1654.42 84.9099 1648.72 83.4356 1641.21 83.4355H1605.43V119.021ZM1763.18 88.2607H1807.89L1785.58 34.3984L1763.18 88.2607ZM195.727 77.8066H222.266C232.318 77.8066 239.824 75.6621 244.783 71.373C249.742 67.084 252.222 61.1193 252.222 53.4795C252.222 45.7057 249.742 39.6738 244.783 35.3848C239.824 31.0957 232.318 28.9512 222.266 28.9512H195.727V77.8066ZM1605.43 60.7168H1635.79C1642.89 60.7168 1648.25 59.3097 1651.87 56.4951C1655.49 53.5464 1657.3 49.2573 1657.3 43.6279C1657.3 37.9985 1655.49 33.7766 1651.87 30.9619C1648.25 28.0132 1642.89 26.5391 1635.79 26.5391H1605.43V60.7168Z" fill="url(#paint0_linear_3202_37)"/>
<defs>
<linearGradient id="paint0_linear_3202_37" x1="805.257" y1="-70.3557" x2="805.257" y2="172.3" gradientUnits="userSpaceOnUse">
<stop stop-color="#245475"/>
<stop offset="1" stop-color="#161D27"/>
</linearGradient>
</defs>
</svg>
