<svg width="1898" height="278" viewBox="0 0 1898 278" fill="none" xmlns="http://www.w3.org/2000/svg">
<path d="M1236.6 71.6045C1256.83 72.7475 1274.38 76.1922 1289.23 81.9434C1307.97 89.1209 1322.13 99.588 1331.7 113.345C1341.27 127.102 1346.06 143.75 1346.06 163.289C1346.06 182.629 1341.27 199.277 1331.7 213.233C1322.33 226.99 1308.47 237.457 1290.13 244.635C1275.09 250.583 1257.25 254.064 1236.6 255.082V277.831H1192.04V254.911C1172.06 253.709 1154.61 250.286 1139.7 244.635C1120.96 237.457 1106.7 227.09 1096.93 213.532C1087.17 199.775 1082.28 183.027 1082.28 163.289C1082.28 143.551 1087.17 126.902 1096.93 113.345C1106.7 99.588 1120.96 89.1209 1139.7 81.9434C1154.61 76.2925 1172.06 72.868 1192.04 71.666V50.2422H1236.6V71.6045ZM1928.44 55.627C1946.58 55.627 1962.93 58.8172 1977.48 65.1973C1992.24 71.3779 2004.6 80.549 2014.57 92.7109L1983.46 121.421C1976.29 113.246 1968.31 107.166 1959.54 103.179C1950.77 98.9918 1941.2 96.8985 1930.83 96.8984C1921.06 96.8984 1912.09 98.4926 1903.91 101.683C1895.74 104.873 1888.66 109.459 1882.68 115.44C1876.7 121.422 1872.01 128.499 1868.62 136.674C1865.43 144.848 1863.84 153.92 1863.84 163.889C1863.84 173.857 1865.43 182.929 1868.62 191.104C1872.01 199.278 1876.7 206.356 1882.68 212.337C1888.66 218.318 1895.74 222.904 1903.91 226.094C1912.09 229.284 1921.06 230.879 1930.83 230.879C1941.2 230.879 1950.77 228.886 1959.54 224.898C1968.31 220.712 1976.29 214.43 1983.46 206.057L2014.57 234.768C2004.6 246.929 1992.24 256.2 1977.48 262.58C1962.93 268.96 1946.48 272.15 1928.14 272.15C1911.99 272.15 1896.93 269.559 1882.98 264.375C1869.22 258.992 1857.26 251.415 1847.09 241.646C1836.92 231.876 1828.95 220.412 1823.17 207.253C1817.58 194.094 1814.79 179.639 1814.79 163.889C1814.79 148.138 1817.58 133.683 1823.17 120.524C1828.95 107.366 1836.92 95.9013 1847.09 86.1318C1857.46 76.3625 1869.52 68.8859 1883.28 63.7021C1897.03 58.319 1912.09 55.627 1928.44 55.627ZM48.1494 195.59L148.037 59.2168H193.495V268.562H145.645V132.487L45.7568 268.562H0V59.2168H48.1494V195.59ZM294.067 141.759H389.171V59.2168H437.619V268.562H389.171V182.73H294.067V268.562H245.619V59.2168H294.067V141.759ZM650.069 98.6934H583.079V268.562H535.229V98.6934H468.537V59.2168H650.069V98.6934ZM838.696 98.0947H728.64V143.553H825.836V181.235H728.64V229.684H842.584V268.562H680.49V59.2168H838.696V98.0947ZM972.334 59.2168C991.075 59.2168 1007.22 62.3067 1020.78 68.4873C1034.34 74.4686 1044.81 83.1414 1052.18 94.5059C1059.56 105.87 1063.25 119.428 1063.25 135.179C1063.25 150.73 1059.56 164.188 1052.18 175.553C1044.81 186.917 1034.34 195.69 1020.78 201.871C1007.22 207.852 991.075 210.843 972.334 210.843H930.166V268.562H881.717V59.2168H972.334ZM1540.51 98.0947H1430.45V143.553H1527.65V181.235H1430.45V229.684H1544.39V268.562H1382.3V59.2168H1540.51V98.0947ZM1631.68 195.588L1731.56 59.2148H1777.02V268.561H1729.17V132.485L1629.28 268.561H1583.53V59.2148H1631.68V195.588ZM1236.6 217.217C1246.75 216.292 1255.63 214.567 1263.21 212.037C1275.38 207.85 1284.45 201.769 1290.43 193.794C1296.41 185.62 1299.4 175.351 1299.4 162.99C1299.4 150.629 1296.31 140.46 1290.13 132.485C1283.95 124.51 1274.88 118.629 1262.92 114.841C1255.4 112.294 1246.63 110.562 1236.6 109.642V217.217ZM1192.04 109.776C1182.29 110.687 1173.71 112.275 1166.32 114.541C1153.96 118.329 1144.68 124.311 1138.5 132.485C1132.32 140.46 1129.23 150.728 1129.23 163.289C1129.23 175.85 1132.52 186.217 1139.1 194.392C1145.68 202.367 1155.15 208.348 1167.51 212.336C1174.79 214.529 1182.96 216.085 1192.04 217.009V109.776ZM930.166 171.366H969.643C984.596 171.366 995.761 168.176 1003.14 161.796C1010.51 155.416 1014.2 146.543 1014.2 135.179C1014.2 123.615 1010.51 114.644 1003.14 108.264C995.761 101.884 984.596 98.6934 969.643 98.6934H930.166V171.366ZM1655.3 0C1655.5 7.17736 1657.6 12.6602 1661.58 16.4482C1665.77 20.0369 1671.95 21.8311 1680.13 21.8311C1688.1 21.831 1694.18 20.037 1698.37 16.4482C1702.56 12.6602 1704.75 7.17725 1704.95 0H1738.14C1737.95 14.5543 1733.16 25.8189 1723.79 33.7939C1714.42 41.7689 1699.86 45.7568 1680.13 45.7568C1660.19 45.7568 1645.53 41.769 1636.16 33.7939C1626.99 25.8189 1622.31 14.5543 1622.11 0H1655.3Z" fill="url(#paint0_linear_3202_21)"/>
<defs>
<linearGradient id="paint0_linear_3202_21" x1="869.927" y1="-113.448" x2="869.927" y2="277.831" gradientUnits="userSpaceOnUse">
<stop stop-color="#245475"/>
<stop offset="1" stop-color="#161D27"/>
</linearGradient>
</defs>
</svg>
